<svg width="291" height="362" viewBox="0 0 291 362" fill="none" xmlns="http://www.w3.org/2000/svg">
<g clip-path="url(#clip0_488_5010)">
<path d="M25.6337 27.9964H3.81778L5.18733 8.60449H24.2763L25.6337 27.9964Z" fill="#71D1AE"/>
<path fill-rule="evenodd" clip-rule="evenodd" d="M14.7257 4.96891C13.8697 4.96891 13.0173 5.32117 12.3365 6.0025C11.6645 6.67502 11.211 7.6205 11.0898 8.6744V12.2409H8.66577V8.5465L8.67215 8.48459C8.83632 6.89025 9.51843 5.39341 10.6218 4.28916C11.7288 3.1813 13.1873 2.54492 14.7257 2.54492C16.2642 2.54492 17.7227 3.1813 18.8297 4.28916C19.9331 5.39341 20.6152 6.89025 20.7793 8.48459L20.7857 8.5465V12.2409H18.3617V8.6744C18.2405 7.6205 17.787 6.67502 17.115 6.0025C16.4342 5.32117 15.5818 4.96891 14.7257 4.96891Z" fill="#B8F6E0"/>
<path d="M3.01578 57.0264H0.331405L4.49054 45.0295H7.68859L11.8312 57.0264H9.16334L8.26855 54.2591H3.92715L3.01578 57.0264ZM4.55682 52.3204H7.63888L6.13099 47.7305H6.04814L4.55682 52.3204ZM14.8271 45.0295V57.0264H12.3415V45.0295H14.8271ZM27.3343 43.4719V49.2549H29.4718V50.9948H27.3343V58.5177H25.2133V43.4719H27.3343ZM23.3077 45.0129C23.2911 49.52 21.5347 53.4306 16.4642 55.9162L15.2711 54.2923C18.842 52.5027 20.7559 50.1 21.1536 46.7362H16.1328V45.0129H23.3077ZM46.1017 51.2102V52.8672H40.4181V55.3031H38.3303V52.8672H32.2987V51.2102H46.1017ZM44.5773 56.5955V58.2857H33.9226V54.11H36.0104V56.5955H44.5773ZM36.1596 43.9524V45.5266H42.2077V43.9524H44.3121V50.1497H34.0717V43.9524H36.1596ZM36.1596 48.4761H42.2077V47.1008H36.1596V48.4761ZM51.782 45.8249C51.7654 47.6973 52.8259 49.52 55.212 50.2823L54.0853 51.9559C52.4614 51.4091 51.3595 50.3237 50.7215 48.9567C50.0504 50.448 48.8822 51.6162 47.1755 52.221L46.0321 50.5308C48.5508 49.7189 49.6279 47.747 49.6444 45.6923V44.2507H51.782V45.8249ZM58.8409 53.1324V58.5508H56.7365V54.806H48.4845V53.1324H58.8409ZM58.8409 43.4719V52.453H56.7365V48.0122H53.903V46.2723H56.7365V43.4719H58.8409ZM71.9115 43.4885V48.1116H73.9497V49.8349H71.9115V54.7397H69.7905V43.4885H71.9115ZM68.8958 45.0627V46.7362H59.9478V45.0627H63.3779V43.4553H65.4823V45.0627H68.8958ZM64.4218 47.2665C66.6091 47.2665 68.1335 48.443 68.1335 50.1829C68.1335 51.9227 66.6091 53.0661 64.4218 53.0661C62.2179 53.0661 60.6769 51.9227 60.6769 50.1829C60.6769 48.443 62.2179 47.2665 64.4218 47.2665ZM64.4218 48.8738C63.411 48.8904 62.7316 49.3543 62.7482 50.1829C62.7316 51.0114 63.411 51.4588 64.4218 51.4588C65.4326 51.4588 66.1285 51.0114 66.1285 50.1829C66.1285 49.3543 65.4326 48.8904 64.4218 48.8738ZM72.4584 56.5955V58.2857H62.1351V53.878H64.2395V56.5955H72.4584ZM76.8428 51.3428C78.185 51.3428 78.6324 50.8457 78.6324 49.636V47.7802C78.6324 44.9301 80.2895 44.5158 82.659 44.5158V46.3551C81.2671 46.3551 80.9854 46.8854 80.9854 48.0287V50.2823C80.9854 51.1854 80.596 51.989 78.9141 52.3204V52.569C80.596 52.9169 80.9854 53.7206 80.9854 54.6237V56.8772C80.9854 58.0206 81.2671 58.5674 82.659 58.5674V60.4067C80.2895 60.4067 78.6324 59.9924 78.6324 57.1258V55.2699C78.6324 54.0769 78.185 53.5632 76.8428 53.5632V51.3428ZM90.5928 44.3501C90.5928 48.327 87.9913 51.0445 83.4842 52.2044L82.6723 50.564C86.0609 49.7023 87.9913 48.0204 88.3227 45.9906H83.5505V44.3501H90.5928ZM95.2159 43.4885V51.9062H93.0949V43.4885H95.2159ZM95.2159 52.5193V58.3686H85.1578V52.5193H95.2159ZM87.2622 54.1763V56.7115H93.1446V54.1763H87.2622ZM110.209 55.0545V56.7944H96.4057V55.0545H102.222V51.9724H97.8638V44.5821H108.668V51.9724H104.326V55.0545H110.209ZM99.9517 46.2723V50.3154H106.58V46.2723H99.9517ZM118.722 44.7147V46.438H113.138V48.9235H118.093V50.5805H113.138V53.4306C115.45 53.4141 117.297 53.3312 119.402 52.9998L119.601 54.7065C117.231 55.0545 115.06 55.1208 112.343 55.1208H111.05V44.7147H118.722ZM122.898 43.4719V58.5508H120.761V43.4719H122.898ZM129.738 53.5632C128.396 53.5632 127.949 54.0769 127.949 55.2699V57.1258C127.949 59.9924 126.292 60.4067 123.922 60.4067V58.5674C125.314 58.5674 125.596 58.0206 125.596 56.8772V54.6237C125.596 53.7206 125.985 52.9169 127.667 52.569V52.3204C125.985 51.989 125.596 51.1854 125.596 50.2823V48.0287C125.596 46.8854 125.314 46.3551 123.922 46.3551V44.5158C126.292 44.5158 127.949 44.9301 127.949 47.7802V49.636C127.949 50.8457 128.396 51.3428 129.738 51.3428V53.5632ZM142.411 43.4719V51.9393H140.307V43.4719H142.411ZM132.784 44.3336V49.4206C135.071 49.4041 137.009 49.2384 139.031 48.8075L139.28 50.5143C136.927 51.0114 134.673 51.1936 131.972 51.1936H130.663V44.3336H132.784ZM142.411 52.5524V58.3686H132.337V52.5524H142.411ZM134.408 54.2094V56.7115H140.34V54.2094H134.408ZM148.506 44.4827C150.892 44.4661 152.682 46.0237 152.682 48.1779C152.682 50.3486 150.892 51.8896 148.506 51.8896C146.12 51.8896 144.314 50.3486 144.314 48.1779C144.314 46.0237 146.12 44.4661 148.506 44.4827ZM148.506 46.3054C147.313 46.3054 146.401 47.0014 146.418 48.1779C146.401 49.3709 147.313 50.0503 148.506 50.0503C149.699 50.0503 150.61 49.3709 150.627 48.1779C150.61 47.0014 149.715 46.3054 148.506 46.3054ZM156.294 43.4719V58.584H154.189V43.4719H156.294ZM143.684 53.7786C146.368 53.7952 150.097 53.7455 153.328 53.2981L153.493 54.8225C150.146 55.4688 146.567 55.5019 143.932 55.5019L143.684 53.7786ZM14.2504 79.0545V80.7447H0.447397V79.0545H6.21384V75.641H8.31826V79.0545H14.2504ZM8.38454 69.4106C8.38454 71.5648 10.3233 73.8349 13.7699 74.3651L12.8751 76.1216C10.2238 75.641 8.25198 74.2243 7.25777 72.3436C6.26355 74.216 4.30826 75.6493 1.67359 76.1216L0.778801 74.3651C4.19227 73.8349 6.11442 71.5482 6.13099 69.4106V68.3336H8.38454V69.4106ZM26.8902 67.4719V82.584H24.7526V67.4719H26.8902ZM17.1303 68.665V72.3436H20.3781V68.665H22.4659V79.0545H15.0093V68.665H17.1303ZM17.1303 77.3478H20.3781V73.984H17.1303V77.3478ZM41.1539 67.4719V82.5508H39.1323V74.9948H37.8895V81.8217H35.9011V67.7205H37.8895V73.2881H39.1323V67.4719H41.1539ZM35.1554 69.1786V70.8854H34.1778V77.1489C34.5672 77.1075 34.94 77.0661 35.288 77.0164L35.404 78.5574C33.0841 79.0545 30.0187 79.1042 28.1462 79.1042L27.9142 77.3643C28.2953 77.3643 28.7262 77.3643 29.1901 77.3478V70.8854H28.1959V69.1786H35.1554ZM31.0957 77.3146C31.4934 77.3146 31.8911 77.2981 32.2888 77.2815V70.8854H31.0957V77.3146ZM54.6056 67.4885V78.6071H52.5012V73.2384H49.9162V71.5482H52.5012V67.4885H54.6056ZM54.9701 80.5955V82.2857H44.5806V77.646H46.7016V80.5955H54.9701ZM49.5019 68.6318V70.322H44.7131V71.7305H49.038V73.3875H44.7131V74.8622C46.917 74.854 48.3669 74.796 50.0488 74.5143L50.231 76.1879C48.2923 76.5358 46.5856 76.6021 43.7852 76.6021H42.6087V68.6318H49.5019ZM68.7864 67.4719V82.5508H66.7648V67.4719H68.7864ZM65.638 67.6873V81.8549H63.6496V74.7297H62.44C62.2411 77.6957 60.9818 79.4853 59.1259 79.4853C57.1375 79.4853 55.845 77.3975 55.845 74.0006C55.845 70.6203 57.1375 68.549 59.1259 68.549C60.9404 68.549 62.1831 70.2391 62.4234 73.0561H63.6496V67.6873H65.638ZM59.1259 70.5374C58.2809 70.5374 57.7837 71.6973 57.8003 74.0006C57.7837 76.3204 58.2809 77.4638 59.1259 77.4472C59.9876 77.4638 60.5013 76.3204 60.5013 74.0006C60.5013 71.6973 59.9876 70.5374 59.1259 70.5374ZM75.2289 70.8854C75.2289 73.7189 76.3722 76.4696 78.8909 77.5632L77.5984 79.2534C75.9248 78.4331 74.8064 76.9335 74.185 75.0777C73.5222 77.0495 72.3622 78.6651 70.6389 79.5185L69.3133 77.7952C71.8983 76.6353 73.0748 73.7189 73.0913 70.8854V68.6318H75.2289V70.8854ZM82.2547 67.4719V82.584H80.1668V73.9177H77.2008V72.211H80.1668V67.4719H82.2547ZM88.2332 68.4827C90.6193 68.4661 92.4089 70.0237 92.4089 72.1779C92.4089 74.3486 90.6193 75.8896 88.2332 75.8896C85.8471 75.8896 84.041 74.3486 84.041 72.1779C84.041 70.0237 85.8471 68.4661 88.2332 68.4827ZM88.2332 70.3054C87.0402 70.3054 86.1288 71.0014 86.1454 72.1779C86.1288 73.3709 87.0402 74.0503 88.2332 74.0503C89.4263 74.0503 90.3376 73.3709 90.3542 72.1779C90.3376 71.0014 89.4429 70.3054 88.2332 70.3054ZM96.0212 67.4719V82.584H93.9168V67.4719H96.0212ZM83.4113 77.7786C86.0957 77.7952 89.824 77.7455 93.0552 77.2981L93.2209 78.8225C89.8737 79.4688 86.2945 79.5019 83.6598 79.5019L83.4113 77.7786ZM113.977 75.3096V76.9667H100.19V75.3096H113.977ZM112.287 77.9609V82.5508H110.149V79.6345H101.748V77.9609H112.287ZM112.502 72.7578V74.3651H101.914V67.8033H112.369V69.4438H104.035V70.2889H112.021V71.8465H104.035V72.7578H112.502ZM126.666 67.4885V76.4364H124.545V67.4885H126.666ZM121.529 76.7181C124.728 76.7181 126.699 77.7952 126.716 79.651C126.699 81.5235 124.728 82.584 121.529 82.5674C118.315 82.584 116.343 81.5235 116.343 79.651C116.343 77.7952 118.315 76.7181 121.529 76.7181ZM121.529 78.3586C119.524 78.3586 118.464 78.806 118.464 79.651C118.464 80.5127 119.524 80.9601 121.529 80.9435C123.518 80.9601 124.628 80.5127 124.628 79.651C124.628 78.806 123.518 78.3586 121.529 78.3586ZM122.955 68.4827V70.1894H119.939C120.005 71.8962 121.123 73.578 123.518 74.2988L122.441 75.9559C120.759 75.4422 119.574 74.39 118.895 73.0561C118.207 74.5557 116.981 75.757 115.2 76.337L114.106 74.6634C116.542 73.8763 117.685 72.0453 117.768 70.1894H114.669V68.4827H122.955ZM141.609 75.1771V76.8672H127.856V75.1771H141.609ZM140.052 80.5955V82.2857H129.513V77.878H131.634V80.5955H140.052ZM134.733 67.9359C138.03 67.9193 140.201 69.0958 140.217 71.0179C140.201 72.9401 138.03 74.1331 134.733 74.1331C131.402 74.1331 129.231 72.9401 129.231 71.0179C129.231 69.0958 131.402 67.9193 134.733 67.9359ZM134.733 69.5929C132.645 69.6095 131.419 70.1066 131.435 71.0179C131.419 71.9624 132.645 72.4264 134.733 72.4264C136.82 72.4264 138.03 71.9624 138.03 71.0179C138.03 70.1066 136.82 69.6095 134.733 69.5929ZM156.632 67.4719V73.0727H158.852V74.796H156.632V82.584H154.511V67.4719H156.632ZM152.406 68.8638V70.5705H147.435V77.1821C149.623 77.1572 151.429 77.0578 153.434 76.7015L153.666 78.4745C151.329 78.8722 149.275 78.9385 146.607 78.9219H145.331V68.8638H152.406ZM165.427 67.7536C168.775 67.7536 170.896 68.8638 170.912 70.7031C170.896 72.5258 168.775 73.636 165.427 73.6195C162.097 73.636 159.926 72.5258 159.926 70.7031C159.926 68.8638 162.097 67.7536 165.427 67.7536ZM165.427 69.3941C163.323 69.3941 162.113 69.8415 162.13 70.7031C162.113 71.5482 163.323 71.979 165.427 71.979C167.515 71.979 168.725 71.5482 168.725 70.7031C168.725 69.8415 167.515 69.3941 165.427 69.3941ZM170.664 77.2484V82.3851H160.141V77.2484H170.664ZM162.229 78.9219V80.695H168.592V78.9219H162.229ZM172.304 74.4977V76.1879H158.551V74.4977H172.304ZM180.851 68.9798V70.1894C180.834 71.6145 180.834 73.4703 180.437 75.9724L178.349 75.8067C178.689 73.6195 178.722 72.0039 178.747 70.67H173.03V68.9798H180.851ZM177.089 73.3046V77.6792C178.573 77.6212 180.08 77.5135 181.464 77.3312L181.597 78.9054C178.498 79.4356 175.068 79.4853 172.433 79.4688L172.234 77.7786C173.079 77.7703 174.024 77.7703 175.002 77.7455V73.3046H177.089ZM184.314 67.4719V73.5366H186.369V75.2931H184.314V82.5508H182.177V67.4719H184.314ZM201.209 67.4719V70.6037H203.247V72.327H201.209V75.3925H199.088V67.4719H201.209ZM197.116 68.4993C197.1 72.4761 194.647 74.796 190.074 75.6576L189.179 73.9674C192.916 73.3543 194.531 71.8547 194.747 70.1563H189.925V68.4993H197.116ZM201.259 75.9559V77.5135H193.388V78.4083H201.11V79.9162H193.388V80.8275H201.59V82.3851H191.267V75.9559H201.259ZM207.121 68.5324C209.425 68.5324 211.082 70.6203 211.098 73.9012C211.082 77.2152 209.425 79.2865 207.121 79.2865C204.818 79.2865 203.128 77.2152 203.145 73.9012C203.128 70.6203 204.818 68.5324 207.121 68.5324ZM207.121 70.438C205.961 70.438 205.183 71.6642 205.183 73.9012C205.183 76.1547 205.961 77.3643 207.121 77.3643C208.298 77.3643 209.06 76.1547 209.077 73.9012C209.06 71.6642 208.298 70.438 207.121 70.438ZM214.959 67.4719V73.1555H217.18V74.9119H214.959V82.5508H212.838V67.4719H214.959ZM230.681 79.0545V80.7944H216.878V79.0545H219.96V75.3593C218.792 74.6634 218.088 73.5946 218.088 72.2607C218.088 69.8249 220.474 68.201 223.755 68.201C227.019 68.201 229.422 69.8249 229.438 72.2607C229.43 73.5615 228.742 74.622 227.615 75.3262V79.0545H230.681ZM223.755 69.8746C221.6 69.8746 220.175 70.7362 220.175 72.2607C220.175 73.7355 221.6 74.6468 223.755 74.6468C225.892 74.6468 227.334 73.7355 227.35 72.2607C227.334 70.7362 225.892 69.8746 223.755 69.8746ZM222.048 79.0545H225.478V76.1216C224.939 76.2293 224.359 76.2873 223.755 76.2873C223.15 76.2873 222.578 76.2376 222.048 76.1216V79.0545Z" fill="#1E1E1E"/>
<rect y="100.601" width="291" height="73.5423" rx="6.78717" fill="white"/>
<path d="M27.8247 131.9V133.59H14.0217V131.9H19.7882V128.487H21.8926V131.9H27.8247ZM21.9589 122.256C21.9589 124.41 23.8976 126.681 27.3442 127.211L26.4494 128.967C23.7982 128.487 21.8263 127.07 20.8321 125.189C19.8379 127.062 17.8826 128.495 15.2479 128.967L14.3531 127.211C17.7666 126.681 19.6888 124.394 19.7053 122.256V121.179H21.9589V122.256ZM33.3393 122.687C33.3393 124.51 34.3998 126.266 36.7859 127.012L35.6592 128.652C34.0601 128.122 32.9416 127.095 32.2954 125.769C31.6409 127.294 30.4727 128.487 28.7494 129.067L27.606 127.41C30.1247 126.565 31.2018 124.56 31.2183 122.488V121.113H33.3393V122.687ZM39.8017 120.318V123.847H41.8399V125.604H39.8017V129.266H37.6807V120.318H39.8017ZM34.8638 129.564C37.979 129.564 39.9509 130.641 39.9509 132.48C39.9509 134.336 37.979 135.397 34.8638 135.397C31.6823 135.397 29.6939 134.336 29.6939 132.48C29.6939 130.641 31.6823 129.564 34.8638 129.564ZM34.8638 131.221C32.8754 131.221 31.7983 131.652 31.8149 132.48C31.7983 133.342 32.8754 133.74 34.8638 133.74C36.8191 133.74 37.863 133.342 37.863 132.48C37.863 131.652 36.8191 131.221 34.8638 131.221ZM48.4481 129.713C51.7456 129.713 53.8168 130.757 53.8334 132.563C53.8168 134.336 51.7456 135.397 48.4481 135.397C45.1837 135.397 43.0793 134.336 43.0793 132.563C43.0793 130.757 45.1837 129.713 48.4481 129.713ZM48.4481 131.287C46.3768 131.287 45.1837 131.718 45.1837 132.563C45.1837 133.375 46.3768 133.789 48.4481 133.789C50.5194 133.789 51.729 133.375 51.729 132.563C51.729 131.718 50.5194 131.287 48.4481 131.287ZM53.7506 120.997V122.223C53.7506 123.416 53.7506 124.709 53.3197 126.266L51.2484 126.067C51.5798 124.7 51.6213 123.681 51.6461 122.654H43.2284V120.997H53.7506ZM55.3744 127.045V128.752H41.6874V127.045H46.8242V124.41H48.912V127.045H55.3744ZM68.0971 120.334V131.171H65.9761V120.334H68.0971ZM68.4948 133.441V135.131H57.9892V130.077H60.1268V133.441H68.4948ZM59.8285 121.295C62.1483 121.295 63.9545 122.886 63.9545 125.09C63.9545 127.343 62.1483 128.918 59.8285 128.918C57.5087 128.918 55.7025 127.343 55.7025 125.09C55.7025 122.886 57.5087 121.295 59.8285 121.295ZM59.8285 123.135C58.652 123.118 57.7572 123.864 57.7738 125.09C57.7572 126.349 58.652 127.078 59.8285 127.078C60.9719 127.078 61.8667 126.349 61.8667 125.09C61.8667 123.864 60.9719 123.118 59.8285 123.135ZM74.175 121.328C76.5611 121.312 78.3507 122.869 78.3507 125.024C78.3507 127.194 76.5611 128.735 74.175 128.735C71.7889 128.735 69.9828 127.194 69.9828 125.024C69.9828 122.869 71.7889 121.312 74.175 121.328ZM74.175 123.151C72.982 123.151 72.0706 123.847 72.0872 125.024C72.0706 126.217 72.982 126.896 74.175 126.896C75.3681 126.896 76.2795 126.217 76.296 125.024C76.2795 123.847 75.3847 123.151 74.175 123.151ZM81.963 120.318V135.43H79.8586V120.318H81.963ZM69.3531 130.624C72.0375 130.641 75.7658 130.591 78.997 130.144L79.1627 131.668C75.8155 132.314 72.2363 132.348 69.6016 132.348L69.3531 130.624ZM98.8415 120.318V135.397H96.7371V120.318H98.8415ZM86.2315 131.039C89.0319 131.055 92.6774 131.072 95.9086 130.641L96.0577 132.182C92.6774 132.795 89.2307 132.795 86.5132 132.795L86.2315 131.039ZM95.6931 122.157V123.814H86.5298V122.157H90.0427V120.483H92.1803V122.157H95.6931ZM91.1198 124.394C93.3236 124.394 94.8481 125.521 94.8481 127.277C94.8481 128.984 93.3236 130.144 91.1198 130.144C88.9325 130.144 87.3915 128.984 87.408 127.277C87.3915 125.521 88.9325 124.394 91.1198 124.394ZM91.1198 126.001C90.0924 126.001 89.3965 126.482 89.413 127.277C89.3965 128.072 90.0924 128.52 91.1198 128.536C92.1305 128.52 92.8265 128.072 92.8265 127.277C92.8265 126.482 92.1305 126.001 91.1198 126.001ZM107.67 121.411V128.139H100.429V121.411H107.67ZM102.517 123.085V126.449H105.582V123.085H102.517ZM111.945 120.318V123.731H113.983V125.438H111.945V129.067H109.824V120.318H111.945ZM107.007 129.448C110.106 129.448 112.094 130.575 112.094 132.43C112.094 134.303 110.106 135.413 107.007 135.413C103.842 135.413 101.837 134.303 101.837 132.43C101.837 130.575 103.842 129.448 107.007 129.448ZM107.007 131.121C105.019 131.121 103.942 131.569 103.958 132.43C103.942 133.325 105.019 133.74 107.007 133.74C108.963 133.74 110.007 133.325 110.007 132.43C110.007 131.569 108.963 131.121 107.007 131.121Z" fill="#0D80F2"/>
<path d="M22.4941 144.5V154.835H21.5778V144.5H22.4941ZM17.0077 145.3C18.5388 145.312 19.6407 146.704 19.6407 148.896C19.6407 151.088 18.5388 152.48 17.0077 152.48C15.465 152.48 14.3747 151.088 14.3747 148.896C14.3747 146.704 15.465 145.312 17.0077 145.3ZM17.0077 146.112C15.9754 146.124 15.2562 147.214 15.2562 148.896C15.2562 150.578 15.9754 151.668 17.0077 151.668C18.04 151.668 18.7592 150.578 18.7592 148.896C18.7592 147.214 18.04 146.124 17.0077 146.112ZM32.8058 144.512V152.144H31.8894V148.177H29.4536V150.381H24.7791V145.196H25.6839V147.029H28.5605V145.196H29.4536V147.411H31.8894V144.512H32.8058ZM33.0377 153.826V154.591H26.1362V151.39H27.0526V153.826H33.0377ZM25.6839 149.627H28.5605V147.748H25.6839V149.627ZM42.5607 145.103V145.845H38.8721V148.56C40.8904 148.571 42.1083 148.496 43.5234 148.212L43.6394 148.942C42.1663 149.256 40.902 149.314 38.7793 149.302H37.979V145.103H42.5607ZM45.5649 144.5V146.692H47.1191V147.446H45.5649V149.708H44.6601V144.5H45.5649ZM45.5649 150.218V152.759H39.9045V153.93H45.9476V154.672H39.0113V152.039H44.6601V150.961H38.9881V150.218H45.5649ZM54.241 150.392V152.735H56.6769V150.392H57.5816V152.735H60.1914V153.489H50.7497V152.735H53.3479V150.392H54.241ZM55.8881 145.985C55.8881 147.667 57.9412 149.128 59.739 149.418L59.3679 150.172C57.7672 149.859 56.0911 148.832 55.4242 147.377C54.7398 148.821 53.0695 149.859 51.4804 150.172L51.0977 149.418C52.8955 149.105 54.937 147.667 54.937 145.985V145.196H55.8881V145.985ZM67.0581 145.393V146.159H66.0142V149.163C66.5478 149.128 67.0697 149.076 67.5685 149.012L67.6381 149.708C65.5154 150.044 63.0448 150.079 61.3049 150.079L61.1889 149.314C61.5949 149.314 62.0415 149.314 62.5112 149.302V146.159H61.4789V145.393H67.0581ZM69.5287 144.512V150.833H68.624V144.512H69.5287ZM66.107 151.053C68.276 151.053 69.5983 151.726 69.5983 152.909C69.5983 154.116 68.276 154.788 66.107 154.788C63.9379 154.788 62.6272 154.116 62.6272 152.909C62.6272 151.726 63.9379 151.053 66.107 151.053ZM66.107 151.784C64.5063 151.784 63.5204 152.202 63.5204 152.909C63.5204 153.64 64.5063 154.069 66.107 154.069C67.7077 154.069 68.682 153.64 68.682 152.909C68.682 152.202 67.7077 151.784 66.107 151.784ZM63.3928 149.29C63.9611 149.279 64.5469 149.256 65.1327 149.221V146.159H63.3928V149.29ZM80.1188 144.5V154.812H79.2372V144.5H80.1188ZM78.0425 144.72V154.29H77.1726V149.279H75.8503C75.7517 151.285 74.8992 152.538 73.6233 152.538C72.2777 152.538 71.4078 151.146 71.4078 148.954C71.4078 146.762 72.2777 145.37 73.6233 145.37C74.876 145.37 75.7227 146.582 75.8387 148.525H77.1726V144.72H78.0425ZM73.6233 146.228C72.7881 146.228 72.2545 147.272 72.2661 148.954C72.2545 150.624 72.7881 151.68 73.6233 151.668C74.4584 151.68 74.992 150.624 74.992 148.954C74.992 147.272 74.4584 146.228 73.6233 146.228ZM86.7535 145.439V150.184H81.9863V145.439H86.7535ZM82.8794 146.182V149.453H85.872V146.182H82.8794ZM89.6069 144.5V147.643H91.1612V148.409H89.6069V152.063H88.7022V144.5H89.6069ZM90.0825 153.826V154.591H83.1578V151.343H84.0509V153.826H90.0825ZM97.9699 153.988C96.2068 153.988 94.9773 153.014 94.9889 151.645C94.9773 150.555 95.7313 149.662 96.694 149.511V149.464C95.8589 149.267 95.3137 148.502 95.3137 147.585C95.3137 146.298 96.4388 145.358 97.9699 145.358C99.501 145.358 100.626 146.298 100.638 147.585C100.626 148.502 100.069 149.267 99.2458 149.464V149.511C100.197 149.662 100.951 150.555 100.962 151.645C100.951 153.014 99.7214 153.988 97.9699 153.988ZM97.9699 153.072C99.1762 153.072 99.9186 152.469 99.9186 151.587C99.9186 150.659 99.095 149.975 97.9699 149.975C96.8448 149.975 96.0097 150.659 96.0328 151.587C96.0097 152.469 96.7636 153.072 97.9699 153.072ZM97.9699 149.093C98.921 149.093 99.617 148.513 99.617 147.667C99.617 146.831 98.9558 146.263 97.9699 146.263C96.9724 146.263 96.3228 146.831 96.3228 147.667C96.3228 148.513 97.0072 149.093 97.9699 149.093ZM105.289 153.988C103.827 153.965 102.227 153.107 102.227 149.998C102.227 147.029 103.445 145.358 105.417 145.358C106.89 145.358 107.922 146.263 108.142 147.585H107.11C106.913 146.843 106.356 146.286 105.417 146.286C104.036 146.286 103.213 147.469 103.213 149.488H103.317C103.804 148.792 104.57 148.374 105.475 148.374C106.971 148.374 108.212 149.534 108.212 151.158C108.212 152.735 107.052 154 105.289 153.988ZM105.289 153.072C106.379 153.072 107.191 152.213 107.203 151.169C107.191 150.137 106.414 149.29 105.312 149.29C104.21 149.29 103.364 150.184 103.352 151.181C103.352 152.167 104.164 153.072 105.289 153.072ZM111.425 149.372C110.335 149.372 109.743 148.56 109.743 147.353C109.743 146.17 110.358 145.347 111.425 145.347C112.527 145.347 113.107 146.17 113.107 147.353C113.107 148.56 112.504 149.372 111.425 149.372ZM111.425 148.652C111.993 148.652 112.26 148.142 112.26 147.353C112.26 146.576 112.017 146.054 111.425 146.066C110.868 146.066 110.59 146.576 110.59 147.353C110.59 148.142 110.868 148.652 111.425 148.652ZM116.552 153.988C115.461 154 114.858 153.176 114.87 151.981C114.858 150.787 115.485 149.963 116.552 149.963C117.642 149.963 118.222 150.787 118.222 151.981C118.222 153.176 117.619 154 116.552 153.988ZM116.552 153.269C117.109 153.269 117.375 152.759 117.375 151.981C117.375 151.193 117.132 150.671 116.552 150.682C115.995 150.694 115.705 151.193 115.705 151.981C115.705 152.759 115.983 153.269 116.552 153.269ZM110.567 153.872L116.343 145.474H117.283L111.506 153.872H110.567ZM128.951 149.29V150.01H119.51V149.29H128.951ZM127.768 150.833V153.025H121.574V154.011H128.105V154.672H120.658V152.399H126.863V151.517H120.646V150.833H127.768ZM127.733 144.813V146.947H121.644V147.852H127.919V148.513H120.739V146.321H126.817V145.474H120.704V144.813H127.733ZM136.305 151.436C136.305 152.358 136.792 153.333 137.778 153.895C138.764 153.281 139.275 152.231 139.286 151.436V150.833H140.156V151.436C140.156 152.503 140.933 153.57 142.267 154.011L141.803 154.696C140.777 154.33 140.058 153.605 139.704 152.735C139.385 153.576 138.753 154.377 137.778 154.788C136.787 154.406 136.154 153.646 135.853 152.77C135.476 153.605 134.768 154.33 133.788 154.696L133.324 154.011C134.635 153.547 135.412 152.422 135.424 151.436V150.833H136.305V151.436ZM141.467 144.5V150.532H140.55V147.493H138.915V146.75H140.55V144.5H141.467ZM135.168 146.089C135.168 146.884 135.371 148.125 136.178 148.942C136.966 148.142 137.164 146.93 137.164 146.089V145.08H138.022V146.089C138.022 147.226 138.474 148.594 139.669 149.267L139.147 149.917C138.358 149.464 137.871 148.705 137.616 147.864C137.384 148.71 136.955 149.534 136.178 150.01C135.383 149.505 134.942 148.658 134.728 147.794C134.455 148.647 133.98 149.453 133.197 149.917L132.686 149.267C133.869 148.548 134.299 147.098 134.31 146.089V145.08H135.168V146.089ZM145.805 145.3C147.208 145.312 148.218 146.512 148.368 148.444H150.677V144.5H151.581V154.835H150.677V149.198H148.38C148.27 151.216 147.243 152.48 145.805 152.48C144.285 152.48 143.218 151.088 143.218 148.896C143.218 146.704 144.285 145.312 145.805 145.3ZM145.805 146.112C144.784 146.124 144.088 147.214 144.088 148.896C144.088 150.578 144.784 151.668 145.805 151.668C146.814 151.668 147.522 150.578 147.522 148.896C147.522 147.214 146.814 146.124 145.805 146.112ZM162.74 152.724V153.489H153.298V152.724H155.641V149.94C154.759 149.482 154.226 148.739 154.226 147.806C154.226 146.205 155.792 145.161 157.996 145.149C160.199 145.161 161.765 146.205 161.765 147.806C161.765 148.722 161.249 149.459 160.397 149.917V152.724H162.74ZM157.996 145.903C156.302 145.892 155.107 146.657 155.107 147.806C155.107 148.954 156.302 149.731 157.996 149.731C159.678 149.731 160.884 148.954 160.884 147.806C160.884 146.657 159.678 145.892 157.996 145.903ZM156.534 152.724H159.48V150.265C159.034 150.387 158.535 150.45 157.996 150.45C157.468 150.45 156.975 150.392 156.534 150.276V152.724Z" fill="#474747"/>
<rect y="180.93" width="291" height="68.5423" rx="6.78717" fill="white"/>
<path d="M23.9539 199.397V211.381H22.4825V199.397H23.9539ZM14.0251 208.054C14.9795 208.047 16.0599 208.047 17.1933 208.014V206.914C15.8412 206.702 14.9662 205.873 14.9662 204.74C14.9662 203.387 16.1593 202.486 17.9091 202.486C19.6722 202.486 20.8918 203.387 20.8918 204.74C20.8918 205.866 20.0102 206.688 18.6647 206.9V207.961C19.7186 207.914 20.7791 207.828 21.7799 207.696L21.886 208.796C19.248 209.247 16.3979 209.273 14.2372 209.273L14.0251 208.054ZM21.5678 200.776V201.943H14.2769V200.776H17.1933V199.437H18.6647V200.776H21.5678ZM17.9091 203.613C17.0077 203.626 16.3581 204.037 16.3714 204.74C16.3581 205.429 17.0077 205.84 17.9091 205.827C18.8503 205.84 19.4733 205.429 19.4733 204.74C19.4733 204.037 18.8503 203.626 17.9091 203.613ZM29.1371 202.274C29.1239 204.408 30.1976 206.582 32.0535 207.47L31.1521 208.65C29.8529 207.994 28.9184 206.728 28.408 205.204C27.8844 206.834 26.9034 208.186 25.5314 208.876L24.63 207.696C26.5522 206.781 27.6524 204.488 27.6657 202.274V200.365H29.1371V202.274ZM34.2407 199.397V204.09H36.0834V205.349H34.2407V211.381H32.7693V199.397H34.2407ZM46.0785 199.397V211.381H44.6601V199.397H46.0785ZM43.6129 199.609V210.798H42.2077V205.098H41.0677C40.9285 207.431 39.9277 208.876 38.443 208.862C36.8787 208.876 35.858 207.219 35.858 204.581C35.858 201.943 36.8787 200.312 38.443 200.312C39.8945 200.312 40.8821 201.664 41.0544 203.904H42.2077V199.609H43.6129ZM38.443 201.704C37.6874 201.691 37.2101 202.711 37.2234 204.581C37.2101 206.45 37.6874 207.47 38.443 207.457C39.2383 207.47 39.7156 206.45 39.7156 204.581C39.7156 202.711 39.2383 201.691 38.443 201.704ZM51.0496 202.274C51.0496 204.501 52.1101 206.688 54.019 207.523L53.1308 208.703C51.7721 208.04 50.8176 206.768 50.3073 205.204C49.7836 206.854 48.8093 208.226 47.4307 208.929L46.5027 207.736C48.4514 206.821 49.5384 204.514 49.5517 202.274V200.365H51.0496V202.274ZM56.6702 199.397V211.394H55.2121V204.461H52.6934V203.268H55.2121V199.397H56.6702ZM63.6165 201.624C63.6165 202.924 64.3721 204.223 65.9496 204.819L65.1675 205.946C64.1003 205.535 63.358 204.773 62.9272 203.838C62.4897 204.912 61.7076 205.827 60.5676 206.304L59.7722 205.177C61.4159 204.448 62.1848 202.95 62.1981 201.624V200.14H63.6165V201.624ZM70.1253 199.411V206.755H68.7201V203.639H67.5271V206.383H66.1484V199.636H67.5271V202.433H68.7201V199.411H70.1253ZM66.0821 206.953C68.5876 206.953 70.1783 207.775 70.1916 209.154C70.1783 210.533 68.5876 211.368 66.0821 211.368C63.5502 211.368 61.9727 210.533 61.9727 209.154C61.9727 207.775 63.5502 206.953 66.0821 206.953ZM66.0821 208.067C64.4251 208.067 63.4441 208.451 63.4441 209.154C63.4441 209.87 64.4251 210.241 66.0821 210.241C67.7259 210.241 68.7069 209.87 68.7069 209.154C68.7069 208.451 67.7259 208.067 66.0821 208.067ZM80.77 199.397V211.381H79.2853V199.397H80.77ZM77.1908 200.67C77.1908 204.236 75.8122 207.272 71.61 209.26L70.8411 208.08C73.9762 206.589 75.4344 204.561 75.6929 201.837H71.4509V200.67H77.1908ZM91.3484 202.791V203.958H83.0501V199.835H84.5082V202.791H91.3484ZM92.5813 205.349V206.516H81.6316V205.349H92.5813ZM91.428 209.91V211.103H82.944V207.576H84.4154V209.91H91.428ZM101.092 201.041C101.092 202.897 102.908 204.753 105.413 205.19L104.75 206.423C102.742 205.999 101.098 204.786 100.323 203.175C99.5275 204.773 97.8837 205.992 95.8821 206.423L95.2325 205.19C97.7114 204.74 99.5143 202.884 99.5275 201.041V200.153H101.092V201.041ZM105.851 208.637V209.857H94.9011V208.637H105.851ZM115.528 205.681V206.847H107.123V200.339H115.422V201.532H108.621V202.977H115.143V204.13H108.621V205.681H115.528ZM116.734 208.716V209.923H105.784V208.716H116.734ZM121.281 200.643V205.045H118.444V207.298C119.684 207.285 120.857 207.232 122.209 206.98L122.328 208.186C120.724 208.478 119.372 208.518 117.861 208.518H117.026V203.878H119.863V201.823H117.012V200.643H121.281ZM126.981 199.397V211.381H125.576V199.397H126.981ZM124.515 199.649V210.771H123.124V204.766H121.811V203.56H123.124V199.649H124.515ZM133.742 201.041C133.742 202.897 135.558 204.753 138.063 205.19L137.4 206.423C135.392 205.999 133.748 204.786 132.973 203.175C132.178 204.773 130.534 205.992 128.532 206.423L127.883 205.19C130.361 204.74 132.164 202.884 132.178 201.041V200.153H133.742V201.041ZM138.501 208.637V209.857H127.551V208.637H138.501ZM149.371 204.832V205.946H138.421V204.832H149.371ZM148.045 206.662V209.393H141.178V210.228H148.403V211.248H139.707V208.438H146.587V207.696H139.694V206.662H148.045ZM148.019 199.662V202.367H141.271V203.149H148.231V204.156H139.813V201.412H146.547V200.683H139.773V199.662H148.019ZM161.726 207.059V211.394H160.254V208.239H153.56V207.059H161.726ZM161.726 199.397V206.476H160.254V203.507H157.842V205.774H152.208V200.272H157.842V202.314H160.254V199.397H161.726ZM153.679 201.465V204.607H156.383V201.465H153.679ZM172.278 202.791V203.958H163.979V199.835H165.437V202.791H172.278ZM173.51 205.349V206.516H162.561V205.349H173.51ZM172.357 209.91V211.103H163.873V207.576H165.345V209.91H172.357ZM185.865 199.411V207.404H184.394V203.851H182.114V202.645H184.394V199.411H185.865ZM182.034 200.339C182.021 203.507 180.191 205.681 176.626 206.794L175.989 205.641C178.747 204.813 180.191 203.374 180.443 201.518H176.612V200.339H182.034ZM182.604 206.927C182.591 208.412 184.076 209.764 186.462 210.148L185.865 211.315C184.009 210.997 182.578 210.122 181.862 208.876C181.126 210.122 179.688 211.003 177.832 211.328L177.249 210.161C179.648 209.803 181.133 208.412 181.133 206.927V206.463H182.604V206.927ZM192.162 200.073C194.694 200.073 196.629 201.412 196.629 203.454C196.629 205.522 194.694 206.861 192.162 206.861C189.643 206.861 187.708 205.522 187.721 203.454C187.708 201.412 189.643 200.073 192.162 200.073ZM192.162 201.266C190.425 201.253 189.139 202.128 189.139 203.454C189.139 204.806 190.425 205.654 192.162 205.654C193.912 205.654 195.184 204.806 195.184 203.454C195.184 202.128 193.912 201.253 192.162 201.266ZM197.663 208.663V209.87H186.713V208.663H197.663ZM208.546 208.77V209.989H197.597V208.77H202.316V206.821H198.896V202.897H205.789V201.412H198.869V200.219H207.247V204.064H200.367V205.615H207.526V206.821H203.774V208.77H208.546ZM220.808 199.994V201.187H219.138V204.09H220.716V205.257H211.914V204.09H213.504V201.187H211.86V199.994H220.808ZM221.789 206.397V207.603H217.03V211.368H215.572V207.603H210.84V206.397H221.789ZM214.976 204.09H217.68V201.187H214.976V204.09ZM231.44 202.791V203.958H223.142V199.835H224.6V202.791H231.44ZM232.673 205.349V206.516H221.723V205.349H232.673ZM231.519 209.91V211.103H223.035V207.576H224.507V209.91H231.519ZM245.028 199.411V206.41H243.556V205.084H240.706V203.891H243.556V202.605H240.825C240.063 204.514 238.32 205.847 235.708 206.569L235.112 205.402C237.916 204.64 239.407 203.222 239.645 201.439H235.748V200.246H241.249C241.249 200.663 241.216 201.061 241.143 201.439H243.556V199.411H245.028ZM241.064 206.542C243.49 206.542 245.107 207.457 245.107 208.929C245.107 210.4 243.49 211.315 241.064 211.315C238.612 211.315 236.994 210.4 236.994 208.929C236.994 207.457 238.612 206.542 241.064 206.542ZM241.064 207.696C239.447 207.696 238.466 208.133 238.466 208.929C238.466 209.711 239.447 210.148 241.064 210.148C242.641 210.148 243.636 209.711 243.636 208.929C243.636 208.133 242.641 207.696 241.064 207.696ZM256.958 201.266V202.473H255.328V203.838H256.958V205.045H255.328V207.046H253.856V199.397H255.328V201.266H256.958ZM251.457 207.152C253.909 207.152 255.46 207.934 255.46 209.26C255.46 210.572 253.909 211.368 251.457 211.368C248.965 211.368 247.44 210.572 247.453 209.26C247.44 207.934 248.965 207.152 251.457 207.152ZM251.457 208.279C249.813 208.279 248.898 208.597 248.912 209.26C248.898 209.896 249.813 210.254 251.457 210.254C253.074 210.254 253.989 209.896 253.989 209.26C253.989 208.597 253.074 208.279 251.457 208.279ZM252.994 200.617V201.77H245.889V200.617H248.713V199.318H250.184V200.617H252.994ZM249.442 202.247C251.178 202.247 252.358 203.109 252.371 204.395C252.358 205.681 251.178 206.529 249.442 206.529C247.692 206.529 246.499 205.681 246.499 204.395C246.499 203.109 247.692 202.247 249.442 202.247ZM249.442 203.334C248.527 203.334 247.931 203.732 247.931 204.395C247.931 205.045 248.527 205.416 249.442 205.416C250.356 205.416 250.966 205.045 250.966 204.395C250.966 203.732 250.356 203.334 249.442 203.334ZM266.728 199.397V211.394H265.243V199.397H266.728ZM260.272 200.272C262.075 200.272 263.387 201.916 263.401 204.501C263.387 207.112 262.075 208.743 260.272 208.743C258.456 208.743 257.144 207.112 257.144 204.501C257.144 201.916 258.456 200.272 260.272 200.272ZM260.272 201.598C259.251 201.598 258.562 202.672 258.562 204.501C258.562 206.344 259.251 207.417 260.272 207.417C261.28 207.417 261.969 206.344 261.969 204.501C261.969 202.672 261.28 201.598 260.272 201.598ZM18.2273 226.192C18.2273 227.186 18.6846 228.233 19.712 228.883C20.7526 228.187 21.2364 227.1 21.2497 226.192V225.702H22.6946V226.192C22.6813 227.451 23.4237 228.618 25.0012 229.122L24.2853 230.195C23.1188 229.804 22.3433 229.042 21.9257 228.088C21.5413 229.029 20.8321 229.871 19.7517 230.301C18.6117 229.89 17.8959 229.082 17.5247 228.127C17.0939 229.049 16.3316 229.798 15.2181 230.195L14.489 229.122C16.04 228.578 16.7823 227.359 16.7956 226.192V225.702H18.2273V226.192ZM23.9539 218.411V225.198H22.4692V218.411H23.9539ZM17.4186 219.047C19.2612 219.047 20.6399 220.213 20.6399 221.897C20.6399 223.567 19.2612 224.734 17.4186 224.734C15.5628 224.734 14.1841 223.567 14.1841 221.897C14.1841 220.213 15.5628 219.047 17.4186 219.047ZM17.4186 220.293C16.3714 220.293 15.6158 220.916 15.6291 221.897C15.6158 222.878 16.3714 223.514 17.4186 223.514C18.4526 223.514 19.195 222.878 19.195 221.897C19.195 220.916 18.4526 220.293 17.4186 220.293ZM28.1296 219.272C29.7535 219.272 30.9532 220.624 31.1653 222.812H33.4454V218.397H34.9036V230.394H33.4454V224.005H31.1786C31.0195 226.318 29.7999 227.743 28.1296 227.743C26.3268 227.743 25.0542 226.112 25.0542 223.501C25.0542 220.916 26.3268 219.272 28.1296 219.272ZM28.1296 220.598C27.1354 220.598 26.4594 221.672 26.4726 223.501C26.4594 225.344 27.1354 226.417 28.1296 226.417C29.1239 226.417 29.7867 225.344 29.7999 223.501C29.7867 221.672 29.1239 220.598 28.1296 220.598ZM46.6883 227.73V228.936H35.7387V227.73H40.4579V225.397H36.945V219.193H38.4165V221.155H43.9708V219.193H45.4422V225.397H41.9161V227.73H46.6883ZM38.4165 224.204H43.9708V222.334H38.4165V224.204ZM49.8963 219.272C50.9833 219.272 51.8781 219.875 52.415 220.929H55.2121V218.397H56.6702V230.394H55.2121V225.861H52.521C52.0041 227.054 51.0562 227.743 49.8963 227.743C48.0935 227.743 46.8209 226.112 46.8209 223.501C46.8209 220.916 48.0935 219.272 49.8963 219.272ZM49.8963 220.598C48.9021 220.598 48.226 221.672 48.2393 223.501C48.226 225.344 48.9021 226.417 49.8963 226.417C50.8905 226.417 51.5533 225.344 51.5666 223.501C51.5533 221.672 50.8905 220.598 49.8963 220.598ZM52.8259 222.136C52.9121 222.553 52.9585 223.011 52.9585 223.501C52.9585 223.919 52.9254 224.303 52.8657 224.668H55.2121V222.136H52.8259ZM68.455 227.716V228.923H57.5054V227.716H60.0373V224.681C59.0829 224.137 58.5062 223.282 58.5128 222.215C58.4996 220.306 60.382 219.047 62.9537 219.047C65.5386 219.047 67.421 220.306 67.421 222.215C67.421 223.262 66.8642 224.104 65.9363 224.654V227.716H68.455ZM62.9537 220.213C61.1641 220.213 59.9445 220.969 59.9578 222.215C59.9445 223.448 61.1641 224.217 62.9537 224.217C64.7433 224.217 65.9761 223.448 65.9761 222.215C65.9761 220.969 64.7433 220.213 62.9537 220.213ZM61.4955 227.716H64.4384V225.211C63.981 225.317 63.4839 225.37 62.9537 225.37C62.4367 225.37 61.9462 225.317 61.4955 225.224V227.716Z" fill="#1E1E1E"/>
<rect y="256.26" width="291" height="49.5423" rx="6.78717" fill="white"/>
<path d="M18.3598 276.451C18.3466 278.081 19.301 279.566 21.1834 280.162L20.388 281.316C19.0823 280.858 18.1676 279.99 17.6572 278.85C17.127 280.156 16.1262 281.183 14.6746 281.687L13.8925 280.494C15.8809 279.844 16.8751 278.24 16.8751 276.517V275.377H18.3598V276.451ZM24.007 274.727V281.78H22.5355V278.254H20.1494V277.047H22.5355V274.727H24.007ZM19.9506 282.098C22.4958 282.098 24.0467 282.946 24.0467 284.404C24.0467 285.863 22.4958 286.698 19.9506 286.698C17.4186 286.698 15.8677 285.863 15.8809 284.404C15.8677 282.946 17.4186 282.098 19.9506 282.098ZM19.9506 283.238C18.2803 283.238 17.3391 283.649 17.3391 284.404C17.3391 285.134 18.2803 285.545 19.9506 285.545C21.6209 285.545 22.5753 285.134 22.5753 284.404C22.5753 283.649 21.6209 283.238 19.9506 283.238ZM31.099 275.722C31.099 277.233 32.7826 278.757 35.341 279.089L34.7577 280.282C32.7229 279.977 31.1057 278.976 30.3302 277.617C29.5414 278.976 27.9308 279.977 25.9159 280.282L25.3326 279.089C27.8645 278.757 29.5481 277.233 29.5481 275.722V275.112H31.099V275.722ZM35.7785 281.316V282.535H31.0195V286.711H29.5613V282.535H24.8554V281.316H35.7785ZM46.6751 280.467V281.647H35.7387V280.467H40.4844V279.327H37.0776V275.271H45.3494V276.424H38.549V278.161H45.4157V279.327H41.9293V280.467H46.6751ZM41.187 282.337C43.772 282.337 45.3229 283.119 45.3362 284.524C45.3229 285.916 43.772 286.711 41.187 286.711C38.5755 286.711 37.0113 285.916 37.0113 284.524C37.0113 283.119 38.5755 282.337 41.187 282.337ZM41.187 283.463C39.4372 283.463 38.496 283.834 38.5092 284.524C38.496 285.213 39.4372 285.571 41.187 285.571C42.897 285.571 43.8515 285.213 43.8647 284.524C43.8515 283.834 42.897 283.463 41.187 283.463ZM56.9619 274.727V286.711H55.5435V274.727H56.9619ZM54.4962 274.94V286.128H53.0911V280.428H51.951C51.8118 282.761 50.811 284.206 49.3263 284.192C47.7621 284.206 46.7413 282.549 46.7413 279.911C46.7413 277.273 47.7621 275.642 49.3263 275.642C50.7779 275.642 51.7654 276.994 51.9378 279.235H53.0911V274.94H54.4962ZM49.3263 277.034C48.5707 277.021 48.0935 278.041 48.1067 279.911C48.0935 281.78 48.5707 282.8 49.3263 282.787C50.1217 282.8 50.5989 281.78 50.5989 279.911C50.5989 278.041 50.1217 277.021 49.3263 277.034ZM61.9329 277.604C61.9329 279.831 62.9934 282.018 64.9023 282.853L64.0142 284.033C62.6554 283.37 61.701 282.098 61.1906 280.534C60.667 282.184 59.6926 283.556 58.314 284.259L57.3861 283.066C59.3347 282.151 60.4217 279.844 60.435 277.604V275.695H61.9329V277.604ZM67.5536 274.727V286.724H66.0954V279.791H63.5767V278.598H66.0954V274.727H67.5536ZM81.0749 274.727V286.711H79.6697V280.6H78.3176V286.101H76.9655V274.953H78.3176V279.42H79.6697V274.727H81.0749ZM75.6133 276.146V277.339H72.6174V282.668C73.9232 282.655 74.9969 282.588 76.2099 282.363L76.3159 283.569C74.871 283.861 73.6116 283.901 71.9414 283.914H71.1327V276.146H75.6133ZM92.5813 281.7V282.867H87.809V286.711H86.3509V282.867H81.6316V281.7H92.5813ZM84.4154 275.205V276.676H89.7709V275.205H91.2556V280.454H82.9573V275.205H84.4154ZM84.4154 279.261H89.7709V277.843H84.4154V279.261ZM103.465 280.931V282.111H98.8382V284.179H97.38V282.111H92.515V280.931H103.465ZM102.258 285.279V286.472H93.8406V283.172H95.2988V285.279H102.258ZM95.4048 275.112V276.464H100.575V275.112H102.033V279.99H93.9467V275.112H95.4048ZM95.4048 278.824H100.575V277.564H95.4048V278.824ZM107.296 275.563C109.191 275.549 110.583 276.756 110.596 278.452C110.583 280.162 109.191 281.356 107.296 281.356C105.413 281.356 104.008 280.162 104.008 278.452C104.008 276.756 105.413 275.549 107.296 275.563ZM107.296 276.835C106.248 276.835 105.466 277.458 105.466 278.452C105.466 279.46 106.248 280.07 107.296 280.07C108.356 280.07 109.152 279.46 109.152 278.452C109.152 277.458 108.356 276.835 107.296 276.835ZM113.393 274.727V286.724H111.922V274.727H113.393ZM103.465 283.013C105.625 283.013 108.621 282.986 111.206 282.615L111.326 283.689C108.635 284.206 105.758 284.219 103.65 284.219L103.465 283.013ZM127.617 284.033V285.226H116.668V284.033H121.36V281.263H122.819V284.033H127.617ZM122.858 276.331C122.858 278.148 124.675 279.937 127.193 280.335L126.557 281.554C124.529 281.17 122.872 280.01 122.076 278.439C121.281 280.003 119.637 281.183 117.622 281.554L116.986 280.335C119.491 279.937 121.281 278.134 121.294 276.331V275.457H122.858V276.331ZM137.52 274.727V286.724H136.035V274.727H137.52ZM129.659 275.708V278.704H132.562V275.708H134.02V283.901H128.187V275.708H129.659ZM129.659 282.694H132.562V279.858H129.659V282.694ZM147.82 274.727V279.407H149.596V280.64H147.82V286.685H146.348V274.727H147.82ZM144.652 275.974C144.652 279.5 143.193 282.588 139.203 284.55L138.368 283.41C141.285 281.959 142.862 279.917 143.167 277.193H139.018V275.974H144.652ZM155.084 275.112C156.9 275.112 158.252 276.239 158.266 277.816C158.252 279.407 156.9 280.52 155.084 280.52C153.255 280.52 151.903 279.407 151.903 277.816C151.903 276.239 153.255 275.112 155.084 275.112ZM155.084 276.331C154.077 276.331 153.334 276.901 153.334 277.816C153.334 278.744 154.077 279.327 155.084 279.327C156.092 279.327 156.834 278.744 156.834 277.816C156.834 276.901 156.092 276.331 155.084 276.331ZM161.673 274.727V280.786H160.188V274.727H161.673ZM161.673 281.303V284.431H155.19V285.399H162.03V286.565H153.745V283.344H160.201V282.456H153.719V281.303H161.673ZM165.848 275.602C167.472 275.602 168.672 276.954 168.884 279.142H171.164V274.727H172.622V286.724H171.164V280.335H168.897C168.738 282.648 167.519 284.073 165.848 284.073C164.045 284.073 162.773 282.443 162.773 279.831C162.773 277.246 164.045 275.602 165.848 275.602ZM165.848 276.928C164.854 276.928 164.178 278.002 164.191 279.831C164.178 281.674 164.854 282.747 165.848 282.747C166.842 282.747 167.505 281.674 167.519 279.831C167.505 278.002 166.842 276.928 165.848 276.928ZM182.909 274.741V277.392H184.593V278.612H182.909V281.369H181.438V274.741H182.909ZM175.459 275.443V279.513C176.997 279.5 178.614 279.36 180.364 279.036L180.536 280.229C178.548 280.626 176.705 280.746 174.969 280.733H173.974V275.443H175.459ZM177.58 282.535C177.58 283.536 178.017 284.603 179.051 285.266C180.112 284.557 180.563 283.437 180.576 282.535V281.859H182.008V282.535C182.008 283.795 182.75 284.988 184.327 285.505L183.598 286.592C182.438 286.187 181.676 285.412 181.278 284.431C180.894 285.392 180.191 286.247 179.078 286.698C177.945 286.267 177.235 285.452 176.864 284.484C176.44 285.419 175.698 286.181 174.611 286.592L173.855 285.505C175.406 284.961 176.162 283.702 176.162 282.535V281.859H177.58V282.535ZM187.615 275.602C189.239 275.602 190.438 276.954 190.651 279.142H192.931V274.727H194.389V286.724H192.931V280.335H190.664C190.505 282.648 189.285 284.073 187.615 284.073C185.812 284.073 184.539 282.443 184.539 279.831C184.539 277.246 185.812 275.602 187.615 275.602ZM187.615 276.928C186.621 276.928 185.945 278.002 185.958 279.831C185.945 281.674 186.621 282.747 187.615 282.747C188.609 282.747 189.272 281.674 189.285 279.831C189.272 278.002 188.609 276.928 187.615 276.928ZM206.174 284.047V285.253H195.224V284.047H197.756V281.011C196.801 280.467 196.225 279.612 196.231 278.545C196.218 276.636 198.101 275.377 200.672 275.377C203.257 275.377 205.14 276.636 205.14 278.545C205.14 279.592 204.583 280.434 203.655 280.984V284.047H206.174ZM200.672 276.544C198.883 276.544 197.663 277.299 197.676 278.545C197.663 279.778 198.883 280.547 200.672 280.547C202.462 280.547 203.695 279.778 203.695 278.545C203.695 277.299 202.462 276.544 200.672 276.544ZM199.214 284.047H202.157V281.541C201.7 281.647 201.203 281.7 200.672 281.7C200.155 281.7 199.665 281.647 199.214 281.554V284.047Z" fill="#1E1E1E"/>
<rect y="312.589" width="291" height="49.5423" rx="6.78717" fill="white"/>
<path d="M24.9084 337.817V339.01H22.3367V343.08H20.8652V339.01H18.0682V343.08H16.5835V339.01H13.9588V337.817H24.9084ZM23.5695 331.666V336.425H15.2976V331.666H23.5695ZM16.7426 332.833V335.246H22.0981V332.833H16.7426ZM29.3757 334.463C29.3757 336.425 30.529 338.493 32.4644 339.302L31.6558 340.468C30.2374 339.859 29.2034 338.599 28.6599 337.075C28.1031 338.719 27.0559 340.097 25.6507 340.76L24.8023 339.607C26.698 338.732 27.8778 336.505 27.8778 334.463V333.456H25.2398V332.236H32.0005V333.456H29.3757V334.463ZM34.824 331.057V343.04H33.3393V331.057H34.824ZM41.9956 331.6C41.9824 334.755 40.3386 336.69 36.5341 337.618L36.0038 336.492C37.8 336.074 38.9467 335.451 39.636 334.662L36.2424 334.914L36.0171 333.787L40.2325 333.628C40.332 333.35 40.3916 333.058 40.4314 332.753H36.6269V331.6H41.9956ZM45.7736 331.057V337.168H44.3022V334.941H42.0221V333.734H44.3022V331.057H45.7736ZM45.7736 337.645V340.76H39.3444V341.728H46.0918V342.894H37.8995V339.686H44.3155V338.798H37.8862V337.645H45.7736ZM52.0703 331.242C54.8011 331.242 56.3786 331.971 56.3919 333.297C56.3786 334.636 54.8011 335.352 52.0703 335.365C49.3396 335.352 47.7488 334.636 47.7488 333.297C47.7488 331.971 49.3396 331.242 52.0703 331.242ZM52.0703 332.329C50.241 332.329 49.2865 332.674 49.2998 333.297C49.2865 333.96 50.241 334.265 52.0703 334.265C53.9262 334.265 54.8674 333.96 54.8674 333.297C54.8674 332.674 53.9262 332.329 52.0703 332.329ZM57.5451 336.001V337.181H46.622V336.001H57.5451ZM56.1798 337.99V340.919H49.3661V341.807H56.5112V342.934H47.9211V339.872H54.7348V339.077H47.9079V337.99H56.1798ZM69.8469 331.057V343.053H68.3622V331.057H69.8469ZM63.3911 331.931C65.194 331.931 66.5063 333.575 66.5196 336.16C66.5063 338.772 65.194 340.402 63.3911 340.402C61.575 340.402 60.2627 338.772 60.2627 336.16C60.2627 333.575 61.575 331.931 63.3911 331.931ZM63.3911 333.257C62.3704 333.257 61.6811 334.331 61.6811 336.16C61.6811 338.003 62.3704 339.077 63.3911 339.077C64.3986 339.077 65.0879 338.003 65.0879 336.16C65.0879 334.331 64.3986 333.257 63.3911 333.257ZM80.7965 331.07V339.912H79.3251V335.497H76.9124V337.963H71.3051V331.852H72.7765V333.787H75.4543V331.852H76.9124V334.304H79.3251V331.07H80.7965ZM81.0616 341.608V342.802H72.8958V339.037H74.3938V341.608H81.0616ZM72.7765 336.796H75.4543V334.927H72.7765V336.796ZM89.8505 331.706V332.886H85.9399V335.55C88.1205 335.537 89.4263 335.451 90.911 335.153L91.0701 336.293C89.4661 336.664 87.9946 336.704 85.4494 336.704H84.4817V331.706H89.8505ZM93.4694 331.057V333.416H95.1397V334.622H93.4694V337.048H91.998V331.057H93.4694ZM93.4694 337.565V340.747H87.1065V341.701H93.8406V342.894H85.6483V339.633H91.998V338.745H85.635V337.565H93.4694ZM105.241 331.057V343.04H103.823V331.057H105.241ZM102.775 331.269V342.457H101.37V336.757H100.23C100.091 339.09 99.0901 340.535 97.6054 340.521C96.0411 340.535 95.0204 338.878 95.0204 336.24C95.0204 333.602 96.0411 331.971 97.6054 331.971C99.0569 331.971 100.044 333.323 100.217 335.564H101.37V331.269H102.775ZM97.6054 333.363C96.8498 333.35 96.3725 334.371 96.3858 336.24C96.3725 338.109 96.8498 339.13 97.6054 339.116C98.4007 339.13 98.878 338.109 98.878 336.24C98.878 334.371 98.4007 333.35 97.6054 333.363ZM112.041 341.993C109.907 341.993 108.396 340.853 108.396 339.289C108.396 338.069 109.297 337.075 110.451 336.889V336.836C109.443 336.624 108.754 335.749 108.754 334.702C108.754 333.217 110.146 332.13 112.041 332.13C113.924 332.13 115.316 333.217 115.316 334.702C115.316 335.749 114.613 336.624 113.619 336.836V336.889C114.772 337.075 115.687 338.069 115.687 339.289C115.687 340.853 114.162 341.993 112.041 341.993ZM112.041 340.628C113.168 340.628 113.91 340.018 113.91 339.13C113.91 338.228 113.115 337.565 112.041 337.565C110.954 337.565 110.159 338.228 110.172 339.13C110.159 340.018 110.901 340.628 112.041 340.628ZM112.041 336.279C112.969 336.279 113.632 335.696 113.632 334.861C113.632 334.052 112.983 333.482 112.041 333.482C111.087 333.482 110.437 334.039 110.437 334.861C110.437 335.696 111.1 336.279 112.041 336.279ZM125.854 331.057V343.04H124.383V331.057H125.854ZM115.925 339.713C116.88 339.706 117.96 339.706 119.094 339.673V338.573C117.742 338.361 116.867 337.532 116.867 336.399C116.867 335.047 118.06 334.145 119.809 334.145C121.573 334.145 122.792 335.047 122.792 336.399C122.792 337.526 121.911 338.347 120.565 338.56V339.62C121.619 339.574 122.679 339.487 123.68 339.355L123.786 340.455C121.148 340.906 118.298 340.932 116.138 340.932L115.925 339.713ZM123.468 332.435V333.602H116.177V332.435H119.094V331.096H120.565V332.435H123.468ZM119.809 335.272C118.908 335.285 118.259 335.696 118.272 336.399C118.259 337.088 118.908 337.499 119.809 337.486C120.751 337.499 121.374 337.088 121.374 336.399C121.374 335.696 120.751 335.285 119.809 335.272ZM139.097 331.057V343.053H137.613V331.057H139.097ZM132.641 331.931C134.444 331.931 135.757 333.575 135.77 336.16C135.757 338.772 134.444 340.402 132.641 340.402C130.825 340.402 129.513 338.772 129.513 336.16C129.513 333.575 130.825 331.931 132.641 331.931ZM132.641 333.257C131.621 333.257 130.931 334.331 130.931 336.16C130.931 338.003 131.621 339.077 132.641 339.077C133.649 339.077 134.338 338.003 134.338 336.16C134.338 334.331 133.649 333.257 132.641 333.257ZM144.254 332.965C144.254 334.477 145.235 335.895 147.077 336.478L146.282 337.632C144.99 337.194 144.062 336.319 143.551 335.206C143.021 336.478 142.053 337.479 140.675 337.963L139.879 336.81C141.815 336.134 142.769 334.543 142.782 332.833V331.693H144.254V332.965ZM149.464 331.057V333.973H151.134V335.192H149.464V338.228H147.992V331.057H149.464ZM145.566 338.493C148.045 338.48 149.57 339.328 149.583 340.747C149.57 342.192 148.045 343.027 145.566 343.027C143.061 343.027 141.51 342.192 141.51 340.747C141.51 339.328 143.061 338.48 145.566 338.493ZM145.566 339.647C143.923 339.647 142.981 340.044 142.981 340.747C142.981 341.489 143.923 341.86 145.566 341.86C147.21 341.86 148.125 341.489 148.125 340.747C148.125 340.044 147.21 339.647 145.566 339.647ZM159.963 331.945V332.661C159.949 333.482 159.949 334.662 159.671 336.187L158.213 336.054C158.445 334.815 158.491 333.9 158.518 333.164H153.851V331.945H159.963ZM156.94 334.675V337.062C158.18 337.015 159.452 336.922 160.612 336.757L160.692 337.817C158.199 338.268 155.376 338.308 153.268 338.321L153.136 337.141C153.845 337.135 154.64 337.128 155.482 337.115V334.675H156.94ZM162.826 331.057V334.795H164.377V336.028H162.826V340.031H161.315V331.057H162.826ZM163.21 341.608V342.802H154.925V339.236H156.41V341.608H163.21ZM173.603 331.07V333.986H175.287V335.219H173.603V338.188H172.132V331.07H173.603ZM173.603 338.719V342.894H165.848V338.719H173.603ZM167.293 339.872V341.701H172.158V339.872H167.293ZM170.077 331.68V335.192H166.087V336.478C168.122 336.472 169.514 336.405 171.151 336.134L171.31 337.3C169.52 337.632 167.969 337.685 165.596 337.685H164.615V334.079H168.632V332.859H164.602V331.68H170.077ZM185.282 331.07V338.454H183.877V335.418H182.737V338.308H181.358V331.242H182.737V334.212H183.877V331.07H185.282ZM180.934 332.289V333.456H174.969V332.289H177.235V331.123H178.693V332.289H180.934ZM177.964 333.907C179.489 333.92 180.563 334.742 180.576 335.988C180.563 337.221 179.489 338.069 177.964 338.069C176.466 338.069 175.379 337.221 175.393 335.988C175.379 334.742 176.466 333.92 177.964 333.907ZM177.964 334.98C177.222 334.98 176.705 335.338 176.705 335.988C176.705 336.611 177.209 336.995 177.964 336.995C178.72 336.995 179.237 336.611 179.237 335.988C179.237 335.338 178.72 334.98 177.964 334.98ZM179.502 339.116C179.502 340.044 179.946 340.999 180.947 341.595C181.961 340.959 182.432 339.951 182.445 339.116V338.825H183.903V339.116C183.903 340.256 184.659 341.357 186.223 341.781L185.534 342.894C184.361 342.523 183.578 341.781 183.161 340.853C182.783 341.768 182.08 342.583 180.974 343C179.847 342.603 179.138 341.834 178.76 340.919C178.322 341.794 177.54 342.517 176.427 342.894L175.737 341.781C177.275 341.317 178.044 340.19 178.044 339.116V338.825H179.502V339.116ZM189.192 331.931C190.816 331.931 192.016 333.284 192.228 335.471H194.508V331.057H195.966V343.053H194.508V336.664H192.241C192.082 338.977 190.863 340.402 189.192 340.402C187.39 340.402 186.117 338.772 186.117 336.16C186.117 333.575 187.39 331.931 189.192 331.931ZM189.192 333.257C188.198 333.257 187.522 334.331 187.535 336.16C187.522 338.003 188.198 339.077 189.192 339.077C190.187 339.077 190.849 338.003 190.863 336.16C190.849 334.331 190.187 333.257 189.192 333.257ZM207.751 340.376V341.582H196.801V340.376H199.333V337.34C198.379 336.796 197.802 335.941 197.809 334.874C197.796 332.965 199.678 331.706 202.25 331.706C204.835 331.706 206.717 332.965 206.717 334.874C206.717 335.922 206.16 336.763 205.232 337.313V340.376H207.751ZM202.25 332.873C200.46 332.873 199.241 333.628 199.254 334.874C199.241 336.107 200.46 336.876 202.25 336.876C204.039 336.876 205.272 336.107 205.272 334.874C205.272 333.628 204.039 332.873 202.25 332.873ZM200.792 340.376H203.734V337.87C203.277 337.976 202.78 338.029 202.25 338.029C201.733 338.029 201.242 337.976 200.792 337.883V340.376Z" fill="#1E1E1E"/>
<rect width="375" height="448" transform="translate(-42 247)" fill="url(#paint0_linear_488_5010)"/>
</g>
<defs>
<linearGradient id="paint0_linear_488_5010" x1="187.5" y1="0" x2="187.5" y2="448" gradientUnits="userSpaceOnUse">
<stop stop-color="#F7FAFC" stop-opacity="0"/>
<stop offset="0.163462" stop-color="#F7FAFC"/>
<stop offset="1" stop-color="#F7FAFC"/>
</linearGradient>
<clipPath id="clip0_488_5010">
<rect width="291" height="362" fill="white"/>
</clipPath>
</defs>
</svg>
