<svg width="299" height="289" viewBox="0 0 299 289" fill="none" xmlns="http://www.w3.org/2000/svg">
<g clip-path="url(#clip0_488_5192)">
<path d="M5.49933 18.1703C2.92843 18.1703 1.0556 16.655 1.00452 14.5267H3.49029C3.54136 15.4972 4.4267 16.1442 5.49933 16.1442C6.77626 16.1442 7.67863 15.2418 7.67863 13.9649C7.67863 12.6539 6.75924 11.7515 5.46528 11.7345C4.54588 11.7345 3.8989 12.075 3.52434 12.7731H1.20883L1.87284 5.67333H9.46634V7.7675H3.98403L3.64352 10.8832H3.74567C4.20537 10.2703 5.12476 9.84465 6.21441 9.84465C8.47884 9.84465 10.1644 11.5302 10.1644 13.8968C10.1644 16.3826 8.27453 18.1703 5.49933 18.1703ZM23.6454 4.08993V13.0625H21.4661V12.5688H18.6569V11.2578H21.4661V4.08993H23.6454ZM10.5185 9.53819C13.5151 9.55521 17.2267 9.52116 20.5467 9.2147L20.6489 10.5597C19.2783 10.747 17.8737 10.8662 16.4946 10.9343V13.0966H14.3493V11.0194C13.0809 11.0535 11.8636 11.0535 10.7399 11.0365L10.5185 9.53819ZM23.6454 13.5222V17.1487H14.9282V17.9489H24.0029V19.4642H12.8V15.7526H21.4831V14.9864H12.7319V13.5222H23.6454ZM15.5071 4.29424C17.8056 4.29424 19.389 5.23066 19.406 6.62678C19.389 8.07397 17.8056 8.94228 15.5071 8.94228C13.1405 8.94228 11.5741 8.07397 11.5741 6.62678C11.5741 5.23066 13.1405 4.29424 15.5071 4.29424ZM15.5071 5.72441C14.3323 5.70738 13.6172 6.06493 13.6342 6.62678C13.6172 7.20565 14.3323 7.52914 15.5071 7.52914C16.6478 7.52914 17.3799 7.20565 17.3799 6.62678C17.3799 6.06493 16.6478 5.70738 15.5071 5.72441ZM28.3718 18L28.3547 16.1442L32.7814 12.075C33.9392 10.9684 34.5521 10.2873 34.5521 9.31685C34.5521 8.2272 33.7179 7.54617 32.5942 7.54617C31.4364 7.54617 30.6873 8.27828 30.6873 9.45306H28.2526C28.2356 7.0354 30.0233 5.50307 32.6282 5.50307C35.2672 5.50307 37.0209 7.00134 37.0209 9.14659C37.0209 10.5427 36.3398 11.7005 33.803 13.9989L31.9302 15.8207V15.8888H37.1911V18H28.3718ZM38.6179 18L43.8107 7.85263V7.7675H37.7666V5.67333H46.4668V7.80156L41.2739 18H38.6179ZM51.1965 4.53261C53.5461 4.53261 55.3338 5.99682 55.3338 8.07397C55.3338 10.1171 53.5461 11.5983 51.1965 11.5983C48.7959 11.5983 47.0252 10.1171 47.0252 8.07397C47.0252 5.99682 48.7959 4.53261 51.1965 4.53261ZM51.1965 6.30329C50.0047 6.30329 49.1194 6.95027 49.1364 8.07397C49.1194 9.18064 50.0047 9.84465 51.1965 9.84465C52.3713 9.84465 53.2396 9.18064 53.2396 8.07397C53.2396 6.95027 52.3713 6.30329 51.1965 6.30329ZM59.7605 4.07291V11.8367H57.5812V4.07291H59.7605ZM59.7605 12.4836V16.689H51.52V17.6935H60.1861V19.3961H49.3918V15.1056H57.5982V14.1522H49.3577V12.4836H59.7605Z" fill="#1E1E1E"/>
<path d="M9.86133 28.9945V33.789H11.8908V34.688H9.86133V41.1305H8.79893V28.9945H9.86133ZM6.67411 30.1795V31.0649H2.08396V37.1942C4.27688 37.1942 5.82963 37.092 7.62755 36.7583L7.76376 37.6845C5.87049 38.025 4.27688 38.0931 1.97499 38.0931H1.02155V30.1795H6.67411ZM18.061 29.2669C20.6897 29.2669 22.3378 30.1114 22.3378 31.5688C22.3378 32.999 20.6897 33.8299 18.061 33.8299C15.4322 33.8299 13.7705 32.999 13.7705 31.5688C13.7705 30.1114 15.4322 29.2669 18.061 29.2669ZM18.061 30.125C16.0996 30.125 14.8601 30.6699 14.8737 31.5688C14.8601 32.4542 16.0996 32.9718 18.061 32.9854C19.9951 32.9718 21.2482 32.4542 21.2482 31.5688C21.2482 30.6699 19.9951 30.125 18.061 30.125ZM22.2289 36.9626V40.9398H13.893V36.9626H22.2289ZM14.9554 37.8207V40.0681H21.1801V37.8207H14.9554ZM23.5773 34.8786V35.764H12.5446V34.8786H23.5773ZM39.1321 34.6607V35.5461H34.1333V36.84C36.4216 36.9354 37.77 37.6845 37.7836 38.9648C37.77 40.3133 36.2172 41.076 33.6157 41.076C30.9869 41.076 29.4342 40.3133 29.4342 38.9648C29.4342 37.6845 30.7758 36.9354 33.0845 36.84V35.5461H28.0994V34.6607H39.1321ZM33.6157 37.6573C31.668 37.6709 30.5102 38.1476 30.5238 38.9648C30.5102 39.7684 31.668 40.2452 33.6157 40.2452C35.5362 40.2452 36.7076 39.7684 36.7076 38.9648C36.7076 38.1476 35.5362 37.6709 33.6157 37.6573ZM38.1514 29.5666V30.4383H34.3104C34.3785 31.8004 36.3807 32.856 38.5191 33.0807L38.1241 33.9252C36.1423 33.6868 34.2831 32.8015 33.6157 31.4462C32.9551 32.8015 31.1027 33.6868 29.1073 33.9252L28.7259 33.0807C30.8235 32.856 32.8393 31.8004 32.9211 30.4383H29.1073V29.5666H38.1514ZM54.7004 35.3826V36.2543H43.6541V35.3826H48.6393V33.789H45.057V29.6211H53.3248V30.5064H46.1194V32.9173H53.4337V33.789H49.7017V35.3826H54.7004ZM53.5291 39.9455V40.8445H45.0843V37.3576H46.1467V39.9455H53.5291ZM61.2247 29.2125C63.9216 29.2125 65.5016 29.948 65.5016 31.2964C65.5016 32.6721 63.9216 33.4076 61.2247 33.4212C58.5278 33.4076 56.9342 32.6721 56.9342 31.2964C56.9342 29.948 58.5278 29.2125 61.2247 29.2125ZM61.2247 30.0161C59.2089 30.0161 58.0375 30.5064 58.0511 31.2964C58.0375 32.1409 59.2089 32.604 61.2247 32.604C63.227 32.604 64.4119 32.1409 64.4119 31.2964C64.4119 30.5064 63.227 30.0161 61.2247 30.0161ZM66.7411 34.2385V35.1102H55.7084V34.2385H66.7411ZM65.3245 36.159V38.8695H58.1328V40.1226H65.6923V40.9671H57.0704V38.0795H64.2757V36.9762H57.0432V36.159H65.3245ZM81.3015 28.9945V41.1305H80.2255V34.293H77.5695V33.4076H80.2255V28.9945H81.3015ZM75.4583 32.5904C75.4583 34.6062 76.9021 36.7992 78.6727 37.6028L78.0326 38.4609C76.6501 37.7866 75.4855 36.3224 74.9407 34.6335C74.3822 36.4246 73.1904 37.9773 71.8079 38.706L71.1542 37.8752C72.9112 37.0171 74.3686 34.7424 74.3822 32.5904V31.133H71.6173V30.2476H78.2369V31.133H75.4583V32.5904ZM94.3501 35.0966V35.9683H89.3513V37.3576H92.988V41.0624H91.912V38.2293H84.5432V37.3576H88.3025V35.9683H83.3174V35.0966H94.3501ZM89.3513 28.9401V30.1931H93.2332V31.0512H89.4194C89.4943 32.4269 91.408 33.3736 93.6963 33.5983L93.3422 34.4155C91.3467 34.1976 89.5624 33.4689 88.8337 32.2362C88.0982 33.4689 86.3139 34.1976 84.3253 34.4155L83.9712 33.5983C86.2458 33.3736 88.1595 32.4269 88.248 31.0512H84.4615V30.1931H88.3025V28.9401H89.3513ZM104.743 28.9945V33.9933H106.772V34.8786H104.743V41.1033H103.68V28.9945H104.743ZM102.509 30.9423V31.8276H95.3035V30.9423H98.4226V29.1444H99.4851V30.9423H102.509ZM98.9675 32.8356C100.684 32.8356 101.923 33.9797 101.937 35.6142C101.923 37.2486 100.684 38.3928 98.9675 38.3928C97.2377 38.3928 95.9846 37.2486 95.9982 35.6142C95.9846 33.9797 97.2377 32.8356 98.9675 32.8356ZM98.9675 33.7345C97.837 33.7345 97.0061 34.5245 97.0197 35.6142C97.0061 36.7174 97.837 37.4938 98.9675 37.4802C100.084 37.4938 100.902 36.7174 100.915 35.6142C100.902 34.5245 100.084 33.7345 98.9675 33.7345ZM117.437 28.9945V41.1033H116.361V28.9945H117.437ZM113.855 30.3157C113.841 33.8026 112.22 36.8809 108.161 38.8286L107.576 37.9569C110.851 36.4042 112.52 34.0818 112.765 31.1875H108.134V30.3157H113.855ZM126.971 29.5938C128.783 29.5802 130.077 30.5745 130.077 32.0592C130.077 33.5302 128.783 34.5517 126.971 34.5381C125.16 34.5517 123.866 33.5302 123.866 32.0592C123.866 30.5745 125.16 29.5802 126.971 29.5938ZM126.971 30.4656C125.759 30.4519 124.901 31.1194 124.915 32.0592C124.901 33.0126 125.759 33.6664 126.971 33.6528C128.197 33.6664 129.055 33.0126 129.055 32.0592C129.055 31.1194 128.197 30.4519 126.971 30.4656ZM132.965 29.0082V41.1169H131.916V29.0082H132.965ZM122.953 35.5733C125.228 35.5733 128.334 35.5324 131.03 35.1374L131.099 35.9411C129.941 36.1522 128.735 36.2816 127.571 36.3497V40.7355H126.508V36.4178C125.276 36.4723 124.111 36.4791 123.103 36.4859L122.953 35.5733ZM144.501 29.0082V32.999H146.326V33.898H144.501V38.0795H143.439V29.0082H144.501ZM142.281 30.4928V31.3645H135.062V30.4928H138.14V29.0082H139.203V30.4928H142.281ZM138.672 32.0319C140.401 32.0319 141.573 32.9173 141.586 34.293C141.573 35.655 140.401 36.5267 138.672 36.5267C136.928 36.5267 135.743 35.655 135.757 34.293C135.743 32.9173 136.928 32.0319 138.672 32.0319ZM138.672 32.8764C137.527 32.8764 136.765 33.4349 136.778 34.293C136.765 35.1511 137.527 35.6959 138.672 35.6823C139.802 35.6959 140.565 35.1511 140.578 34.293C140.565 33.4349 139.802 32.8764 138.672 32.8764ZM145.06 39.9455V40.8445H136.928V37.3576H137.977V39.9455H145.06ZM156.624 32.604V34.0342H161.663V34.9195H150.576V34.0342H155.575V32.604H156.624ZM160.642 29.3759V30.2204H156.814C156.903 31.4599 158.932 32.3656 161.037 32.5359L160.683 33.3395C158.667 33.1488 156.767 32.3656 156.12 31.0921C155.459 32.3656 153.559 33.1488 151.529 33.3395L151.175 32.5359C153.266 32.3656 155.296 31.4599 155.411 30.2204H151.598V29.3759H160.642ZM160.614 36.5267V37.3712H151.625V36.5267H155.575V35.3826H156.637V36.5267H160.614ZM156.106 37.9705C158.435 37.9705 159.77 38.5154 159.77 39.5641C159.77 40.6265 158.435 41.1714 156.106 41.1714C153.75 41.1714 152.456 40.6265 152.456 39.5641C152.456 38.5154 153.75 37.9705 156.106 37.9705ZM156.106 38.7197C154.472 38.7333 153.532 39.0057 153.532 39.5641C153.532 40.1226 154.472 40.4359 156.106 40.4222C157.754 40.4359 158.667 40.1226 158.68 39.5641C158.667 39.0057 157.754 38.7333 156.106 38.7197ZM173.677 35.3826V36.2543H162.644V35.3826H173.677ZM172.451 39.9455V40.8445H164.074V37.3167H165.15V39.9455H172.451ZM168.16 29.4304C170.762 29.4168 172.437 30.3157 172.437 31.8276C172.437 33.3395 170.762 34.2385 168.16 34.2385C165.531 34.2385 163.87 33.3395 163.87 31.8276C163.87 30.3157 165.531 29.4168 168.16 29.4304ZM168.16 30.2885C166.213 30.2885 164.959 30.8742 164.973 31.8276C164.959 32.7811 166.213 33.3668 168.16 33.3668C170.094 33.3668 171.347 32.7811 171.347 31.8276C171.347 30.8742 170.094 30.2885 168.16 30.2885ZM188.237 29.0082V37.8888H187.161V33.2442H184.668V32.3588H187.161V29.0082H188.237ZM188.578 39.9455V40.8445H180.46V37.0852H181.536V39.9455H188.578ZM182.407 31.5007C182.407 33.0671 183.62 34.5926 185.39 35.1919L184.832 36.05C183.463 35.5597 182.407 34.5381 181.89 33.285C181.365 34.6811 180.249 35.798 178.812 36.3361L178.253 35.4643C180.037 34.8378 181.331 33.2442 181.331 31.5007V30.8742H178.594V29.9888H185.118V30.8742H182.407V31.5007ZM201.544 30.9423V31.8276H199.719V33.4757H201.544V34.3747H199.719V36.3633H198.657V29.0082H199.719V30.9423H201.544ZM196.26 29.73V33.0671H191.847V34.8242C193.999 34.8242 195.558 34.7492 197.445 34.4292L197.554 35.3145C195.606 35.6414 193.985 35.7095 191.738 35.7095H190.798V32.2226H195.211V30.6018H190.77V29.73H196.26ZM199.719 37.0035V41.1033H198.657V37.8752H191.792V37.0035H199.719ZM212.291 28.9945V41.1305H211.215V28.9945H212.291ZM205.849 29.9344C207.646 29.948 208.94 31.5825 208.94 34.1568C208.94 36.731 207.646 38.3655 205.849 38.3655C204.037 38.3655 202.757 36.731 202.757 34.1568C202.757 31.5825 204.037 29.948 205.849 29.9344ZM205.849 30.8878C204.636 30.9014 203.792 32.1818 203.792 34.1568C203.792 36.1317 204.636 37.4121 205.849 37.4121C207.061 37.4121 207.905 36.1317 207.905 34.1568C207.905 32.1818 207.061 30.9014 205.849 30.8878ZM221.104 29.9344C222.888 29.948 224.155 31.5825 224.168 34.1568C224.155 36.731 222.888 38.3655 221.104 38.3655C219.306 38.3655 218.053 36.731 218.053 34.1568C218.053 31.5825 219.306 29.948 221.104 29.9344ZM221.104 30.8878C219.905 30.9014 219.061 32.1818 219.061 34.1568C219.061 36.1317 219.905 37.4121 221.104 37.4121C222.316 37.4121 223.133 36.1317 223.133 34.1568C223.133 32.1818 222.316 30.9014 221.104 30.8878ZM227.233 28.9945V33.8299H229.262V34.7561H227.233V41.1033H226.171V28.9945H227.233ZM239.914 29.0082V37.8071H238.851V29.0082H239.914ZM240.295 39.9455V40.8445H231.973V36.9217H233.049V39.9455H240.295ZM231.755 29.9071V34.5517C233.893 34.5654 235.623 34.4496 237.503 34.0342L237.653 34.9331C235.664 35.3417 233.88 35.478 231.66 35.478H230.679V29.9071H231.755ZM255.509 29.0082V37.2078H254.433V33.3123H251.777V32.4133H254.433V29.0082H255.509ZM251.723 29.9616C251.709 33.0671 249.639 35.3009 246.152 36.4178L245.675 35.5597C248.57 34.6675 250.354 32.9854 250.579 30.8333H246.275V29.9616H251.723ZM252.104 36.7038C252.104 38.4745 254.038 39.7957 256.177 40.1771L255.727 41.0352C253.943 40.6878 252.302 39.7548 251.587 38.3383C250.844 39.7616 249.183 40.7083 247.378 41.0624L246.942 40.2179C249.08 39.8502 251.042 38.4881 251.055 36.7038V36.1454H252.104V36.7038ZM268.558 35.3826V36.2543H257.525V35.3826H268.558ZM267.332 39.9455V40.8445H258.955V37.3167H260.031V39.9455H267.332ZM263.042 29.4304C265.643 29.4168 267.318 30.3157 267.318 31.8276C267.318 33.3395 265.643 34.2385 263.042 34.2385C260.413 34.2385 258.751 33.3395 258.751 31.8276C258.751 30.3157 260.413 29.4168 263.042 29.4304ZM263.042 30.2885C261.094 30.2885 259.841 30.8742 259.854 31.8276C259.841 32.7811 261.094 33.3668 263.042 33.3668C264.976 33.3668 266.229 32.7811 266.229 31.8276C266.229 30.8742 264.976 30.2885 263.042 30.2885ZM271.514 37.1533C271.527 35.3281 272.086 34.7697 273.025 34.1976C273.584 33.8571 274.02 33.3123 274.02 32.5495C274.02 31.6233 273.298 31.0376 272.399 31.0376C271.623 31.0376 270.846 31.5007 270.764 32.6176H269.525C269.593 30.9695 270.846 30.0025 272.399 30.0025C274.102 30.0025 275.218 31.1057 275.218 32.604C275.218 33.6664 274.714 34.4155 273.87 34.9331C273.025 35.4507 272.712 35.9683 272.685 37.1533V37.2214H271.514V37.1533ZM272.14 40.0817C271.663 40.0817 271.255 39.6867 271.268 39.1964C271.255 38.7197 271.663 38.3247 272.14 38.3247C272.617 38.3247 273.012 38.7197 273.012 39.1964C273.012 39.6867 272.617 40.0817 272.14 40.0817Z" fill="#6B6B6B"/>
<rect x="0.43586" y="63.8704" width="298.128" height="46.0233" rx="6.5379" stroke="#C7C7C7" stroke-width="0.87172"/>
<g clip-path="url(#clip1_488_5192)">
<path d="M19.3959 86.8822C19.3959 88.6876 20.8595 90.1512 22.6649 90.1512C24.4703 90.1512 25.9338 88.6876 25.9338 86.8822C25.9338 85.0768 24.4703 83.6133 22.6649 83.6133C20.8595 83.6133 19.3959 85.0768 19.3959 86.8822Z" fill="#0D80F2"/>
</g>
<rect x="14.8192" y="79.0368" width="15.691" height="15.691" rx="7.84548" stroke="#0D80F2" stroke-width="1.74344"/>
<path d="M45.9395 90.076H55.9469V90.9181H45.9395V90.076ZM50.4184 87.2202H51.4192V90.3079H50.4184V87.2202ZM47.1111 82.2044H54.7265V87.4033H47.1111V82.2044ZM53.738 83.022H48.0997V86.5978H53.738V83.022ZM57.1664 86.8663H67.1493V87.684H57.1664V86.8663ZM58.4234 84.8282H66.0021V85.6581H58.4234V84.8282ZM58.4234 81.765H65.9045V82.5827H59.4363V85.0967H58.4234V81.765ZM58.4478 91.2476H66.0875V92.0775H58.4478V91.2476ZM58.4478 88.8556H59.4485V91.4673H58.4478V88.8556ZM79.2694 81.2891H80.2457V92.3338H79.2694V81.2891ZM77.5242 85.7436H79.6477V86.5978H77.5242V85.7436ZM76.8652 81.5209H77.8293V91.7724H76.8652V81.5209ZM73.1185 82.9976H73.8996V84.2791C73.8996 84.9299 73.8467 85.5524 73.7409 86.1463C73.6352 86.7402 73.4724 87.2853 73.2528 87.7816C73.0412 88.2779 72.7768 88.7213 72.4595 89.1119C72.1422 89.4943 71.772 89.8116 71.3489 90.0638L70.7143 89.2827C71.2513 88.9898 71.6947 88.5952 72.0446 88.0989C72.3944 87.5945 72.6588 87.0168 72.8378 86.366C73.025 85.7151 73.1185 85.0194 73.1185 84.2791V82.9976ZM73.3016 82.9976H74.0948V84.2791C74.0948 84.9462 74.1843 85.5808 74.3633 86.1829C74.5423 86.785 74.8067 87.3219 75.1566 87.7938C75.5064 88.2576 75.9417 88.6237 76.4624 88.8922L75.8644 89.6733C75.303 89.356 74.8312 88.9288 74.4488 88.3918C74.0664 87.8549 73.7775 87.2365 73.5823 86.5368C73.3951 85.8371 73.3016 85.0845 73.3016 84.2791V82.9976ZM70.9828 82.5949H76.0963V83.4248H70.9828V82.5949ZM84.7725 81.9603H85.6145V83.3149C85.6145 84.039 85.4884 84.7062 85.2362 85.3164C84.984 85.9185 84.6301 86.4433 84.1745 86.8907C83.7188 87.3382 83.1819 87.6799 82.5635 87.9159L82.0143 87.1104C82.5757 86.9151 83.0639 86.6304 83.4788 86.2561C83.8938 85.8737 84.2111 85.4303 84.4307 84.9259C84.6586 84.4214 84.7725 83.8845 84.7725 83.3149V81.9603ZM84.9555 81.9603H85.7732V83.3515C85.7732 83.7258 85.8383 84.0919 85.9685 84.4499C86.1068 84.8079 86.2939 85.1455 86.5298 85.4629C86.7739 85.772 87.0587 86.0446 87.3841 86.2805C87.7177 86.5083 88.0879 86.6955 88.4947 86.8419L87.9821 87.6474C87.3801 87.4196 86.8512 87.0941 86.3956 86.6711C85.94 86.248 85.5861 85.7517 85.3338 85.1822C85.0816 84.6126 84.9555 84.0024 84.9555 83.3515V81.9603ZM89.6175 81.2891H90.6304V89.4414H89.6175V81.2891ZM90.3131 84.6696H92.2536V85.5239H90.3131V84.6696ZM83.7717 91.2598H91.1186V92.0897H83.7717V91.2598ZM83.7717 88.6603H84.7969V91.6625H83.7717V88.6603ZM98.2692 81.4843C99.4896 81.4843 100.442 81.6511 101.125 81.9847C101.808 82.3101 102.15 82.778 102.15 83.3882C102.15 84.0065 101.808 84.4825 101.125 84.816C100.442 85.1415 99.4896 85.3042 98.2692 85.3042C97.0569 85.3042 96.105 85.1415 95.4135 84.816C94.73 84.4825 94.3883 84.0065 94.3883 83.3882C94.3883 82.778 94.73 82.3101 95.4135 81.9847C96.105 81.6511 97.0569 81.4843 98.2692 81.4843ZM98.2692 82.241C97.6753 82.241 97.1668 82.2857 96.7437 82.3752C96.3206 82.4647 95.9952 82.5949 95.7674 82.7658C95.5477 82.9366 95.4379 83.1441 95.4379 83.3882C95.4379 83.6322 95.5477 83.8438 95.7674 84.0228C95.9952 84.1936 96.3206 84.3238 96.7437 84.4133C97.1668 84.4947 97.6753 84.5353 98.2692 84.5353C98.8713 84.5353 99.3839 84.4947 99.8069 84.4133C100.23 84.3238 100.551 84.1936 100.771 84.0228C100.999 83.8438 101.113 83.6322 101.113 83.3882C101.113 83.1441 100.999 82.9366 100.771 82.7658C100.551 82.5949 100.23 82.4647 99.8069 82.3752C99.3839 82.2857 98.8713 82.241 98.2692 82.241ZM93.29 86.0487H103.261V86.8663H93.29V86.0487ZM94.4982 87.806H101.979V90.2957H95.5111V91.6259H94.5226V89.5512H100.991V88.5871H94.4982V87.806ZM94.5226 91.4184H102.309V92.2117H94.5226V91.4184ZM114.514 81.3013H115.527V89.5756H114.514V81.3013ZM115.21 84.9259H117.15V85.768H115.21V84.9259ZM106.984 82.6437H113.501V83.4614H106.984V82.6437ZM110.243 84.0594C110.764 84.0594 111.223 84.1489 111.622 84.3279C112.021 84.4987 112.33 84.7387 112.549 85.0479C112.769 85.349 112.879 85.7069 112.879 86.1219C112.879 86.5368 112.769 86.8989 112.549 87.208C112.33 87.5091 112.021 87.745 111.622 87.9159C111.223 88.0867 110.764 88.1722 110.243 88.1722C109.722 88.1722 109.262 88.0867 108.864 87.9159C108.465 87.745 108.152 87.5091 107.924 87.208C107.704 86.8989 107.595 86.5368 107.595 86.1219C107.595 85.7069 107.704 85.349 107.924 85.0479C108.152 84.7387 108.465 84.4987 108.864 84.3279C109.262 84.1489 109.722 84.0594 110.243 84.0594ZM110.243 84.8527C109.747 84.8527 109.344 84.9706 109.035 85.2066C108.725 85.4344 108.571 85.7395 108.571 86.1219C108.571 86.5043 108.725 86.8094 109.035 87.0372C109.344 87.265 109.747 87.3789 110.243 87.3789C110.747 87.3789 111.15 87.265 111.451 87.0372C111.76 86.8094 111.915 86.5043 111.915 86.1219C111.915 85.7395 111.76 85.4344 111.451 85.2066C111.15 84.9706 110.747 84.8527 110.243 84.8527ZM109.742 81.3013H110.755V83.0587H109.742V81.3013ZM108.656 91.2598H116.015V92.0897H108.656V91.2598ZM108.656 88.9166H109.657V91.6015H108.656V88.9166ZM124.914 84.3523H127.354V85.1822H124.914V84.3523ZM124.828 87.1226H127.33V87.9525H124.828V87.1226ZM129.039 81.2891H130.015V92.3338H129.039V81.2891ZM126.817 81.582H127.782V91.7724H126.817V81.582ZM124.364 82.6925H125.341C125.341 83.6526 125.202 84.576 124.926 85.4629C124.649 86.3416 124.206 87.1633 123.596 87.9281C122.993 88.6847 122.2 89.36 121.216 89.954L120.618 89.2217C121.48 88.701 122.188 88.1152 122.741 87.4643C123.295 86.8053 123.701 86.0934 123.962 85.3286C124.23 84.5557 124.364 83.738 124.364 82.8756V82.6925ZM121.106 82.6925H124.755V83.5224H121.106V82.6925ZM134.688 82.6193H135.518V83.2661C135.518 83.9089 135.388 84.5069 135.127 85.0601C134.867 85.6052 134.505 86.0771 134.041 86.4758C133.578 86.8745 133.036 87.1755 132.418 87.3789L131.906 86.5856C132.459 86.4066 132.943 86.1544 133.358 85.829C133.773 85.4954 134.098 85.1089 134.334 84.6696C134.57 84.2302 134.688 83.7624 134.688 83.2661V82.6193ZM134.883 82.6193H135.713V83.2661C135.713 83.7299 135.823 84.1692 136.043 84.5842C136.271 84.9991 136.588 85.3652 136.995 85.6825C137.41 85.9917 137.886 86.2317 138.423 86.4026L137.934 87.1958C137.324 87.0006 136.791 86.7117 136.336 86.3293C135.88 85.947 135.522 85.4954 135.262 84.9747C135.009 84.4458 134.883 83.8763 134.883 83.2661V82.6193ZM132.235 82.3142H138.154V83.1563H132.235V82.3142ZM134.7 86.9273H135.713V89.4902H134.7V86.9273ZM140.046 85.8656H142.084V86.7321H140.046V85.8656ZM139.326 81.2891H140.326V92.3338H139.326V81.2891ZM131.869 90.0272L131.723 89.1851C132.373 89.1851 133.089 89.181 133.87 89.1729C134.651 89.1566 135.449 89.1281 136.262 89.0875C137.084 89.0387 137.873 88.9614 138.63 88.8556L138.703 89.6C137.922 89.7384 137.125 89.8401 136.311 89.9051C135.506 89.9621 134.721 89.9987 133.956 90.015C133.199 90.0231 132.504 90.0272 131.869 90.0272ZM147.562 85.5849H149.637V86.4148H147.562V85.5849ZM151.492 81.2891H152.469V92.3338H151.492V81.2891ZM149.295 81.5209H150.26V91.7724H149.295V81.5209ZM145.561 82.2166C146.041 82.2166 146.456 82.3712 146.806 82.6803C147.164 82.9895 147.44 83.4329 147.636 84.0106C147.831 84.5882 147.929 85.2676 147.929 86.0487C147.929 86.8378 147.831 87.5213 147.636 88.0989C147.44 88.6766 147.164 89.1241 146.806 89.4414C146.456 89.7506 146.041 89.9051 145.561 89.9051C145.097 89.9051 144.686 89.7506 144.328 89.4414C143.979 89.1241 143.706 88.6766 143.511 88.0989C143.315 87.5213 143.218 86.8378 143.218 86.0487C143.218 85.2676 143.315 84.5882 143.511 84.0106C143.706 83.4329 143.979 82.9895 144.328 82.6803C144.686 82.3712 145.097 82.2166 145.561 82.2166ZM145.561 83.1563C145.276 83.1563 145.028 83.2743 144.817 83.5102C144.605 83.7461 144.442 84.0797 144.328 84.5109C144.214 84.9421 144.158 85.4547 144.158 86.0487C144.158 86.6426 144.214 87.1592 144.328 87.5986C144.442 88.0298 144.605 88.3634 144.817 88.5993C145.028 88.8353 145.276 88.9532 145.561 88.9532C145.854 88.9532 146.106 88.8353 146.318 88.5993C146.537 88.3634 146.704 88.0298 146.818 87.5986C146.932 87.1592 146.989 86.6426 146.989 86.0487C146.989 85.4547 146.932 84.9421 146.818 84.5109C146.704 84.0797 146.537 83.7461 146.318 83.5102C146.106 83.2743 145.854 83.1563 145.561 83.1563ZM156.754 86.0975H166.724V86.9273H156.754V86.0975ZM161.22 84.694H162.221V86.3782H161.22V84.694ZM158.047 81.6552H165.431V85.0235H158.047V81.6552ZM164.43 82.4607H159.036V84.218H164.43V82.4607ZM157.962 87.8304H165.443V90.3201H158.975V91.6625H157.986V89.5756H164.454V88.6115H157.962V87.8304ZM157.986 91.4184H165.772V92.2117H157.986V91.4184ZM170.909 82.1433C171.454 82.1433 171.934 82.302 172.349 82.6193C172.764 82.9285 173.09 83.3719 173.326 83.9495C173.562 84.5272 173.68 85.2066 173.68 85.9876C173.68 86.7687 173.562 87.4481 173.326 88.0257C173.09 88.6034 172.764 89.0509 172.349 89.3682C171.934 89.6855 171.454 89.8441 170.909 89.8441C170.372 89.8441 169.892 89.6855 169.469 89.3682C169.054 89.0509 168.729 88.6034 168.493 88.0257C168.257 87.4481 168.139 86.7687 168.139 85.9876C168.139 85.2066 168.257 84.5272 168.493 83.9495C168.729 83.3719 169.054 82.9285 169.469 82.6193C169.892 82.302 170.372 82.1433 170.909 82.1433ZM170.909 83.0464C170.559 83.0464 170.246 83.1685 169.97 83.4126C169.701 83.6485 169.49 83.9902 169.335 84.4377C169.18 84.8771 169.103 85.3937 169.103 85.9876C169.103 86.5816 169.18 87.1023 169.335 87.5498C169.49 87.9891 169.701 88.3308 169.97 88.5749C170.246 88.819 170.564 88.941 170.922 88.941C171.271 88.941 171.581 88.819 171.849 88.5749C172.126 88.3308 172.337 87.9891 172.484 87.5498C172.638 87.1023 172.716 86.5816 172.716 85.9876C172.716 85.3937 172.638 84.8771 172.484 84.4377C172.337 83.9902 172.126 83.6485 171.849 83.4126C171.581 83.1685 171.267 83.0464 170.909 83.0464ZM175.449 81.2891H176.462V92.3338H175.449V81.2891ZM176.23 85.6947H178.268V86.549H176.23V85.6947ZM189.717 81.2891H190.73V92.346H189.717V81.2891ZM187.35 85.3042H190.01V86.1341H187.35V85.3042ZM184.445 82.8634H185.263V84.5231C185.263 85.1171 185.181 85.7029 185.019 86.2805C184.864 86.8501 184.644 87.387 184.36 87.8915C184.083 88.3959 183.754 88.8434 183.371 89.2339C182.997 89.6244 182.594 89.9336 182.163 90.1614L181.553 89.356C181.951 89.1607 182.326 88.8922 182.676 88.5505C183.025 88.2088 183.33 87.8223 183.591 87.3911C183.859 86.9518 184.067 86.488 184.213 85.9998C184.368 85.5035 184.445 85.0113 184.445 84.5231V82.8634ZM184.665 82.8634H185.47V84.5231C185.47 84.9788 185.543 85.4425 185.69 85.9144C185.836 86.3782 186.04 86.8175 186.3 87.2324C186.569 87.6474 186.878 88.0216 187.228 88.3552C187.577 88.6807 187.952 88.937 188.35 89.1241L187.752 89.9296C187.313 89.7099 186.906 89.4129 186.532 89.0387C186.158 88.6644 185.828 88.2373 185.543 87.7572C185.267 87.2691 185.051 86.7484 184.897 86.1951C184.742 85.6418 184.665 85.0845 184.665 84.5231V82.8634ZM181.968 82.424H187.96V83.2539H181.968V82.424ZM197.356 87.4277H198.357V89.1607H197.356V87.4277ZM192.877 86.8419H202.848V87.6596H192.877V86.8419ZM193.988 88.9166H201.615V92.2971H200.602V89.7343H193.988V88.9166ZM197.356 81.2402H198.357V82.778H197.356V81.2402ZM197.307 82.9H198.198V83.0831C198.198 83.5387 198.084 83.9495 197.856 84.3157C197.629 84.6737 197.307 84.9828 196.892 85.2432C196.486 85.5035 196.014 85.7191 195.477 85.89C194.948 86.0527 194.382 86.1666 193.78 86.2317L193.463 85.4629C194 85.4059 194.5 85.3123 194.964 85.1822C195.428 85.052 195.835 84.8852 196.184 84.6818C196.542 84.4703 196.819 84.2302 197.014 83.9618C197.21 83.6933 197.307 83.4004 197.307 83.0831V82.9ZM197.527 82.9H198.406V83.0831C198.406 83.4004 198.503 83.6933 198.699 83.9618C198.902 84.2302 199.179 84.4703 199.528 84.6818C199.886 84.8852 200.293 85.052 200.749 85.1822C201.213 85.3123 201.713 85.4059 202.25 85.4629L201.933 86.2317C201.339 86.1666 200.773 86.0527 200.236 85.89C199.699 85.7191 199.227 85.5035 198.821 85.2432C198.414 84.9828 198.096 84.6737 197.869 84.3157C197.641 83.9495 197.527 83.5387 197.527 83.0831V82.9ZM193.902 82.3752H201.835V83.1807H193.902V82.3752ZM211.585 81.2891H212.586V92.3338H211.585V81.2891ZM212.354 85.829H214.392V86.6833H212.354V85.829ZM204.043 83.0587H210.548V83.8885H204.043V83.0587ZM207.35 84.7916C207.871 84.7916 208.331 84.9015 208.729 85.1211C209.136 85.3408 209.453 85.6418 209.681 86.0242C209.917 86.3985 210.035 86.8338 210.035 87.3301C210.035 87.8264 209.917 88.2657 209.681 88.6481C209.453 89.0305 209.136 89.3316 208.729 89.5512C208.331 89.7628 207.871 89.8685 207.35 89.8685C206.83 89.8685 206.366 89.7628 205.959 89.5512C205.56 89.3316 205.243 89.0305 205.007 88.6481C204.771 88.2657 204.653 87.8264 204.653 87.3301C204.653 86.8338 204.771 86.3985 205.007 86.0242C205.243 85.6418 205.56 85.3408 205.959 85.1211C206.366 84.9015 206.83 84.7916 207.35 84.7916ZM207.35 85.6337C207.017 85.6337 206.72 85.7069 206.459 85.8534C206.199 85.9998 205.992 86.1992 205.837 86.4514C205.691 86.7036 205.617 86.9965 205.617 87.3301C205.617 87.6637 205.691 87.9606 205.837 88.221C205.992 88.4732 206.199 88.6725 206.459 88.819C206.72 88.9573 207.017 89.0264 207.35 89.0264C207.676 89.0264 207.969 88.9573 208.229 88.819C208.489 88.6725 208.693 88.4732 208.839 88.221C208.994 87.9606 209.071 87.6637 209.071 87.3301C209.071 86.9965 208.994 86.7036 208.839 86.4514C208.693 86.1992 208.489 85.9998 208.229 85.8534C207.969 85.7069 207.676 85.6337 207.35 85.6337ZM206.825 81.4233H207.838V83.4248H206.825V81.4233ZM216.673 84.6086H224.179V85.4262H216.673V84.6086ZM215.319 86.9029H225.326V87.7328H215.319V86.9029ZM216.673 81.6918H217.674V85.0235H216.673V81.6918ZM216.6 91.2354H224.24V92.0653H216.6V91.2354ZM216.6 88.8434H217.613V91.4551H216.6V88.8434ZM237.068 81.3013H238.081V88.758H237.068V81.3013ZM234.7 84.4011H237.275V85.2432H234.7V84.4011ZM233.59 82.1678H234.651C234.651 83.1115 234.452 83.9658 234.053 84.7306C233.655 85.4873 233.077 86.1463 232.32 86.7077C231.572 87.2691 230.673 87.7206 229.623 88.0623L229.184 87.2569C230.119 86.964 230.913 86.5897 231.564 86.1341C232.223 85.6785 232.723 85.1496 233.065 84.5476C233.415 83.9455 233.59 83.2824 233.59 82.5583V82.1678ZM229.721 82.1678H234.31V82.9976H229.721V82.1678ZM234.017 87.8182H234.883V88.3186C234.883 88.8393 234.769 89.3234 234.541 89.7709C234.322 90.2102 234.017 90.6008 233.626 90.9425C233.244 91.2761 232.804 91.5568 232.308 91.7846C231.812 92.0205 231.287 92.1914 230.734 92.2971L230.331 91.4917C230.819 91.4103 231.283 91.2761 231.722 91.0889C232.17 90.8937 232.564 90.6577 232.906 90.3811C233.248 90.1045 233.516 89.7912 233.712 89.4414C233.915 89.0915 234.017 88.7173 234.017 88.3186V87.8182ZM234.151 87.8182H235.017V88.3186C235.017 88.7091 235.115 89.0793 235.31 89.4292C235.506 89.7709 235.774 90.0801 236.116 90.3567C236.457 90.6333 236.848 90.8652 237.287 91.0523C237.735 91.2395 238.199 91.3778 238.679 91.4673L238.264 92.2727C237.71 92.167 237.186 92.0002 236.689 91.7724C236.201 91.5446 235.766 91.2639 235.384 90.9303C235.001 90.5886 234.7 90.198 234.48 89.7587C234.261 89.3193 234.151 88.8393 234.151 88.3186V87.8182Z" fill="#0D141C"/>
<rect x="0.43586" y="121.226" width="298.128" height="46.0233" rx="6.5379" stroke="#C7C7C7" stroke-width="0.87172"/>
<rect x="14.8192" y="136.392" width="15.691" height="15.691" rx="7.84548" stroke="#C7C7C7" stroke-width="1.74344"/>
<path d="M48.6612 140.231H49.4789V142.013C49.4789 142.591 49.3975 143.164 49.2348 143.734C49.0721 144.295 48.8442 144.828 48.5513 145.332C48.2666 145.829 47.9371 146.272 47.5628 146.663C47.1886 147.045 46.7858 147.346 46.3546 147.566L45.7566 146.76C46.1553 146.565 46.5255 146.301 46.8672 145.967C47.217 145.625 47.5262 145.239 47.7947 144.808C48.0632 144.368 48.2747 143.913 48.4293 143.441C48.5839 142.961 48.6612 142.485 48.6612 142.013V140.231ZM48.8564 140.231H49.6619V142.013C49.6619 142.452 49.7311 142.896 49.8694 143.343C50.0158 143.791 50.2192 144.218 50.4796 144.625C50.7399 145.031 51.041 145.397 51.3827 145.723C51.7325 146.04 52.1027 146.296 52.4933 146.492L51.9197 147.297C51.4885 147.078 51.0857 146.785 50.7115 146.419C50.3372 146.044 50.0118 145.621 49.7351 145.149C49.4585 144.677 49.2429 144.173 49.0883 143.636C48.9337 143.099 48.8564 142.558 48.8564 142.013V140.231ZM46.1471 139.78H52.1027V140.622H46.1471V139.78ZM53.4086 138.645H54.4215V149.689H53.4086V138.645ZM54.1896 143.099H56.2277V143.953H54.1896V143.099ZM57.1665 144.088H67.1494V144.905H57.1665V144.088ZM61.6576 142.318H62.6461V144.429H61.6576V142.318ZM58.4235 142.001H65.9778V142.818H58.4235V142.001ZM58.4235 139.157H65.9046V139.963H59.4242V142.489H58.4235V139.157ZM62.1457 145.698C63.3255 145.698 64.2489 145.873 64.9161 146.223C65.5832 146.565 65.9168 147.053 65.9168 147.688C65.9168 148.322 65.5832 148.811 64.9161 149.152C64.2489 149.502 63.3255 149.677 62.1457 149.677C60.966 149.677 60.0385 149.502 59.3632 149.152C58.6961 148.811 58.3625 148.322 58.3625 147.688C58.3625 147.053 58.6961 146.565 59.3632 146.223C60.0385 145.873 60.966 145.698 62.1457 145.698ZM62.1335 146.492C61.564 146.492 61.0718 146.541 60.6568 146.638C60.25 146.728 59.9368 146.862 59.7171 147.041C59.4975 147.212 59.3876 147.427 59.3876 147.688C59.3876 147.94 59.4975 148.156 59.7171 148.335C59.9368 148.514 60.25 148.648 60.6568 148.737C61.0718 148.835 61.564 148.884 62.1335 148.884C62.7193 148.884 63.2156 148.835 63.6224 148.737C64.0374 148.648 64.3547 148.514 64.5744 148.335C64.794 148.156 64.9039 147.94 64.9039 147.688C64.9039 147.427 64.794 147.212 64.5744 147.041C64.3547 146.862 64.0374 146.728 63.6224 146.638C63.2156 146.541 62.7193 146.492 62.1335 146.492ZM78.9034 138.645H79.9163V149.701H78.9034V138.645ZM76.5358 142.66H79.1963V143.49H76.5358V142.66ZM73.6312 140.219H74.4489V141.879C74.4489 142.473 74.3675 143.058 74.2048 143.636C74.0502 144.206 73.8305 144.743 73.5458 145.247C73.2692 145.751 72.9396 146.199 72.5573 146.589C72.183 146.98 71.7803 147.289 71.349 147.517L70.7388 146.711C71.1375 146.516 71.5118 146.248 71.8616 145.906C72.2115 145.564 72.5166 145.178 72.7769 144.747C73.0454 144.307 73.2529 143.843 73.3993 143.355C73.5539 142.859 73.6312 142.367 73.6312 141.879V140.219ZM73.8509 140.219H74.6564V141.879C74.6564 142.334 74.7296 142.798 74.876 143.27C75.0225 143.734 75.2259 144.173 75.4862 144.588C75.7547 145.003 76.0639 145.377 76.4137 145.711C76.7636 146.036 77.1378 146.292 77.5365 146.48L76.9385 147.285C76.4992 147.065 76.0924 146.768 75.7181 146.394C75.3438 146.02 75.0143 145.593 74.7296 145.113C74.453 144.625 74.2373 144.104 74.0828 143.551C73.9282 142.997 73.8509 142.44 73.8509 141.879V140.219ZM71.1538 139.78H77.146V140.609H71.1538V139.78ZM86.5422 144.783H87.5429V146.516H86.5422V144.783ZM82.0633 144.197H92.034V145.015H82.0633V144.197ZM83.1738 146.272H90.8014V149.653H89.7885V147.09H83.1738V146.272ZM86.5422 138.596H87.5429V140.133H86.5422V138.596ZM86.4934 140.255H87.3843V140.439C87.3843 140.894 87.2704 141.305 87.0425 141.671C86.8147 142.029 86.4934 142.338 86.0784 142.599C85.6716 142.859 85.1997 143.075 84.6627 143.245C84.1339 143.408 83.5684 143.522 82.9664 143.587L82.6491 142.818C83.1861 142.761 83.6864 142.668 84.1502 142.538C84.6139 142.407 85.0207 142.241 85.3706 142.037C85.7286 141.826 86.0052 141.586 86.2005 141.317C86.3957 141.049 86.4934 140.756 86.4934 140.439V140.255ZM86.713 140.255H87.5917V140.439C87.5917 140.756 87.6894 141.049 87.8846 141.317C88.088 141.586 88.3647 141.826 88.7145 142.037C89.0725 142.241 89.4793 142.407 89.9349 142.538C90.3987 142.668 90.899 142.761 91.436 142.818L91.1187 143.587C90.5248 143.522 89.9593 143.408 89.4223 143.245C88.8854 143.075 88.4135 142.859 88.0067 142.599C87.5999 142.338 87.2826 142.029 87.0547 141.671C86.8269 141.305 86.713 140.894 86.713 140.439V140.255ZM83.0884 139.731H91.0211V140.536H83.0884V139.731ZM103.751 138.645H104.764V149.701H103.751V138.645ZM98.943 139.499C99.4881 139.499 99.9681 139.657 100.383 139.975C100.806 140.284 101.136 140.727 101.372 141.305C101.616 141.883 101.738 142.562 101.738 143.343C101.738 144.124 101.616 144.804 101.372 145.381C101.136 145.959 100.806 146.406 100.383 146.724C99.9681 147.041 99.4881 147.2 98.943 147.2C98.3978 147.2 97.9137 147.041 97.4907 146.724C97.0676 146.406 96.734 145.959 96.4899 145.381C96.254 144.804 96.136 144.124 96.136 143.343C96.136 142.562 96.254 141.883 96.4899 141.305C96.734 140.727 97.0676 140.284 97.4907 139.975C97.9137 139.657 98.3978 139.499 98.943 139.499ZM98.943 140.402C98.5768 140.402 98.2555 140.524 97.9788 140.768C97.7103 141.004 97.4988 141.346 97.3442 141.793C97.1896 142.233 97.1123 142.749 97.1123 143.343C97.1123 143.937 97.1896 144.458 97.3442 144.905C97.4988 145.345 97.7103 145.686 97.9788 145.93C98.2555 146.174 98.5768 146.296 98.943 146.296C99.3009 146.296 99.6142 146.174 99.8827 145.93C100.159 145.686 100.375 145.345 100.529 144.905C100.684 144.458 100.761 143.937 100.761 143.343C100.761 142.749 100.684 142.233 100.529 141.793C100.375 141.346 100.159 141.004 99.8827 140.768C99.6142 140.524 99.3009 140.402 98.943 140.402ZM115.356 138.645H116.321V149.689H115.356V138.645ZM111.329 142.611H113.453V143.441H111.329V142.611ZM113.148 138.901H114.099V149.116H113.148V138.901ZM109.218 140.365H109.999V141.769C109.999 142.371 109.942 142.961 109.828 143.538C109.714 144.108 109.547 144.645 109.328 145.149C109.108 145.646 108.84 146.097 108.522 146.504C108.205 146.903 107.847 147.228 107.448 147.48L106.826 146.724C107.338 146.414 107.77 146 108.119 145.479C108.477 144.958 108.75 144.376 108.937 143.734C109.124 143.091 109.218 142.436 109.218 141.769V140.365ZM109.425 140.365H110.194V141.769C110.194 142.403 110.284 143.026 110.463 143.636C110.65 144.246 110.914 144.799 111.256 145.296C111.606 145.784 112.033 146.174 112.537 146.467L111.927 147.224C111.39 146.89 110.935 146.447 110.56 145.894C110.194 145.332 109.913 144.698 109.718 143.99C109.523 143.274 109.425 142.534 109.425 141.769V140.365ZM107.131 139.938H112.171V140.768H107.131V139.938ZM128.172 138.645H129.185V145.162H128.172V138.645ZM128.758 141.464H130.796V142.318H128.758V141.464ZM122.034 145.662H129.185V147.895H123.059V149.055H122.058V147.224H128.184V146.37H122.034V145.662ZM122.058 148.847H129.6V149.567H122.058V148.847ZM123.522 143.172H124.523V144.576H123.522V143.172ZM120.691 144.905L120.569 144.161C121.22 144.161 121.94 144.157 122.729 144.149C123.518 144.132 124.324 144.104 125.146 144.063C125.967 144.014 126.757 143.937 127.513 143.831L127.586 144.49C126.805 144.62 126.004 144.718 125.182 144.783C124.369 144.84 123.575 144.877 122.802 144.893C122.038 144.901 121.334 144.905 120.691 144.905ZM120.85 139.487H127.184V140.207H120.85V139.487ZM124.011 140.561C124.792 140.561 125.414 140.687 125.878 140.939C126.35 141.191 126.586 141.545 126.586 142.001C126.586 142.464 126.35 142.826 125.878 143.087C125.414 143.339 124.792 143.465 124.011 143.465C123.23 143.465 122.603 143.339 122.131 143.087C121.667 142.826 121.436 142.464 121.436 142.001C121.436 141.545 121.667 141.191 122.131 140.939C122.603 140.687 123.23 140.561 124.011 140.561ZM124.011 141.232C123.514 141.232 123.12 141.301 122.827 141.439C122.542 141.578 122.4 141.765 122.4 142.001C122.4 142.245 122.542 142.44 122.827 142.586C123.12 142.725 123.514 142.794 124.011 142.794C124.507 142.794 124.897 142.725 125.182 142.586C125.475 142.44 125.622 142.245 125.622 142.001C125.622 141.765 125.475 141.578 125.182 141.439C124.897 141.301 124.507 141.232 124.011 141.232ZM123.522 138.547H124.523V139.865H123.522V138.547ZM134.639 139.267H135.481V140.402C135.481 141.118 135.351 141.777 135.091 142.379C134.839 142.981 134.481 143.51 134.017 143.966C133.561 144.413 133.016 144.755 132.382 144.991L131.845 144.173C132.414 143.97 132.906 143.681 133.321 143.306C133.736 142.932 134.058 142.497 134.285 142.001C134.521 141.496 134.639 140.963 134.639 140.402V139.267ZM134.822 139.267H135.64V140.365C135.64 140.886 135.754 141.378 135.982 141.842C136.21 142.306 136.523 142.717 136.922 143.075C137.328 143.424 137.8 143.689 138.337 143.868L137.788 144.661C137.194 144.433 136.673 144.112 136.226 143.697C135.778 143.282 135.433 142.79 135.189 142.22C134.945 141.651 134.822 141.032 134.822 140.365V139.267ZM139.924 138.645H140.937V145.174H139.924V138.645ZM137.3 145.503C138.439 145.503 139.334 145.686 139.985 146.052C140.644 146.419 140.973 146.931 140.973 147.59C140.973 148.241 140.644 148.75 139.985 149.116C139.334 149.482 138.439 149.665 137.3 149.665C136.161 149.665 135.262 149.482 134.603 149.116C133.952 148.75 133.626 148.241 133.626 147.59C133.626 146.931 133.952 146.419 134.603 146.052C135.262 145.686 136.161 145.503 137.3 145.503ZM137.3 146.309C136.747 146.309 136.271 146.362 135.872 146.467C135.473 146.565 135.164 146.711 134.945 146.907C134.733 147.094 134.627 147.322 134.627 147.59C134.627 147.85 134.733 148.078 134.945 148.274C135.164 148.461 135.473 148.607 135.872 148.713C136.271 148.811 136.747 148.859 137.3 148.859C137.861 148.859 138.337 148.811 138.728 148.713C139.126 148.607 139.432 148.461 139.643 148.274C139.863 148.078 139.973 147.85 139.973 147.59C139.973 147.322 139.863 147.094 139.643 146.907C139.432 146.711 139.126 146.565 138.728 146.467C138.337 146.362 137.861 146.309 137.3 146.309ZM137.52 140.976H140.131V141.818H137.52V140.976ZM145.939 145.223H146.952V147.017H145.939V145.223ZM150.577 138.645H151.59V149.689H150.577V138.645ZM151.273 143.331H153.311V144.185H151.273V143.331ZM143.108 147.59L142.949 146.736C143.617 146.736 144.341 146.732 145.122 146.724C145.911 146.707 146.716 146.675 147.538 146.626C148.36 146.577 149.153 146.5 149.918 146.394L149.991 147.139C149.202 147.277 148.397 147.379 147.575 147.444C146.761 147.509 145.972 147.549 145.207 147.566C144.451 147.582 143.751 147.59 143.108 147.59ZM143.145 139.987H149.735V140.805H143.145V139.987ZM146.452 141.439C146.965 141.439 147.416 141.525 147.807 141.696C148.197 141.866 148.502 142.106 148.722 142.416C148.942 142.717 149.051 143.075 149.051 143.49C149.051 143.896 148.942 144.254 148.722 144.564C148.502 144.873 148.197 145.113 147.807 145.284C147.416 145.446 146.965 145.528 146.452 145.528C145.939 145.528 145.484 145.446 145.085 145.284C144.695 145.113 144.39 144.873 144.17 144.564C143.958 144.254 143.853 143.896 143.853 143.49C143.853 143.075 143.958 142.717 144.17 142.416C144.39 142.106 144.695 141.866 145.085 141.696C145.484 141.525 145.939 141.439 146.452 141.439ZM146.452 142.233C145.956 142.233 145.557 142.346 145.256 142.574C144.955 142.802 144.804 143.107 144.804 143.49C144.804 143.864 144.955 144.165 145.256 144.393C145.557 144.62 145.956 144.734 146.452 144.734C146.94 144.734 147.335 144.62 147.636 144.393C147.937 144.165 148.087 143.864 148.087 143.49C148.087 143.107 147.937 142.802 147.636 142.574C147.335 142.346 146.94 142.233 146.452 142.233ZM145.939 138.669H146.952V140.524H145.939V138.669Z" fill="#0D141C"/>
<rect x="0.43586" y="178.581" width="298.128" height="46.0233" rx="6.5379" stroke="#C7C7C7" stroke-width="0.87172"/>
<rect x="14.8192" y="193.748" width="15.691" height="15.691" rx="7.84548" stroke="#C7C7C7" stroke-width="1.74344"/>
<path d="M46.5621 197.086H51.639V204.274H46.5621V197.086ZM50.6627 197.892H47.5628V203.457H50.6627V197.892ZM53.9578 196H54.9707V207.057H53.9578V196ZM65.209 196H66.2097V207.057H65.209V196ZM57.8011 203.542H58.7164C59.3429 203.542 59.9449 203.534 60.5226 203.518C61.1084 203.493 61.6983 203.453 62.2922 203.396C62.8943 203.339 63.5207 203.257 64.1716 203.152L64.2692 203.981C63.2767 204.144 62.341 204.254 61.4623 204.311C60.5836 204.36 59.6683 204.384 58.7164 204.384H57.8011V203.542ZM57.7767 197.025H62.878V200.967H58.8262V203.859H57.8011V200.149H61.8528V197.855H57.7767V197.025ZM75.2299 198.673H77.3901V199.503H75.2299V198.673ZM75.2299 202.029H77.3901V202.871H75.2299V202.029ZM79.2451 196H80.2214V207.045H79.2451V196ZM77.0728 196.232H78.0369V206.483H77.0728V196.232ZM73.3139 196.928C73.7939 196.928 74.2089 197.082 74.5587 197.391C74.9167 197.7 75.1933 198.144 75.3886 198.722C75.5839 199.299 75.6815 199.979 75.6815 200.76C75.6815 201.549 75.5839 202.232 75.3886 202.81C75.1933 203.388 74.9167 203.835 74.5587 204.152C74.2089 204.461 73.7939 204.616 73.3139 204.616C72.8501 204.616 72.4393 204.461 72.0813 204.152C71.7314 203.835 71.4589 203.388 71.2636 202.81C71.0684 202.232 70.9707 201.549 70.9707 200.76C70.9707 199.979 71.0684 199.299 71.2636 198.722C71.4589 198.144 71.7314 197.7 72.0813 197.391C72.4393 197.082 72.8501 196.928 73.3139 196.928ZM73.3139 197.867C73.0291 197.867 72.7769 197.985 72.5573 198.221C72.3457 198.457 72.183 198.791 72.0691 199.222C71.9552 199.653 71.8982 200.166 71.8982 200.76C71.8982 201.354 71.9552 201.87 72.0691 202.31C72.183 202.741 72.3457 203.074 72.5573 203.31C72.7769 203.546 73.0291 203.664 73.3139 203.664C73.6149 203.664 73.8712 203.546 74.0828 203.31C74.2943 203.074 74.457 202.741 74.5709 202.31C74.693 201.87 74.754 201.354 74.754 200.76C74.754 200.166 74.693 199.653 74.5709 199.222C74.457 198.791 74.2943 198.457 74.0828 198.221C73.8712 197.985 73.6149 197.867 73.3139 197.867ZM84.7726 196.671H85.6147V198.026C85.6147 198.75 85.4886 199.417 85.2363 200.027C84.9841 200.629 84.6302 201.154 84.1746 201.602C83.719 202.049 83.182 202.391 82.5636 202.627L82.0145 201.821C82.5758 201.626 83.064 201.341 83.4789 200.967C83.8939 200.585 84.2112 200.141 84.4309 199.637C84.6587 199.132 84.7726 198.595 84.7726 198.026V196.671ZM84.9556 196.671H85.7733V198.062C85.7733 198.437 85.8384 198.803 85.9686 199.161C86.1069 199.519 86.294 199.856 86.53 200.174C86.7741 200.483 87.0588 200.756 87.3843 200.991C87.7178 201.219 88.088 201.406 88.4948 201.553L87.9823 202.358C87.3802 202.131 86.8513 201.805 86.3957 201.382C85.9401 200.959 85.5862 200.463 85.334 199.893C85.0818 199.324 84.9556 198.713 84.9556 198.062V196.671ZM89.6176 196H90.6305V204.152H89.6176V196ZM90.3132 199.381H92.2537V200.235H90.3132V199.381ZM83.7718 205.971H91.1187V206.801H83.7718V205.971ZM83.7718 203.371H84.797V206.373H83.7718V203.371ZM98.2693 196.195C99.4898 196.195 100.442 196.362 101.125 196.696C101.809 197.021 102.15 197.489 102.15 198.099C102.15 198.717 101.809 199.193 101.125 199.527C100.442 199.852 99.4898 200.015 98.2693 200.015C97.0571 200.015 96.1052 199.852 95.4136 199.527C94.7302 199.193 94.3884 198.717 94.3884 198.099C94.3884 197.489 94.7302 197.021 95.4136 196.696C96.1052 196.362 97.0571 196.195 98.2693 196.195ZM98.2693 196.952C97.6754 196.952 97.1669 196.997 96.7438 197.086C96.3208 197.176 95.9953 197.306 95.7675 197.477C95.5478 197.648 95.438 197.855 95.438 198.099C95.438 198.343 95.5478 198.555 95.7675 198.734C95.9953 198.905 96.3208 199.035 96.7438 199.124C97.1669 199.206 97.6754 199.246 98.2693 199.246C98.8714 199.246 99.384 199.206 99.8071 199.124C100.23 199.035 100.552 198.905 100.771 198.734C100.999 198.555 101.113 198.343 101.113 198.099C101.113 197.855 100.999 197.648 100.771 197.477C100.552 197.306 100.23 197.176 99.8071 197.086C99.384 196.997 98.8714 196.952 98.2693 196.952ZM93.2901 200.76H103.261V201.577H93.2901V200.76ZM94.4983 202.517H101.979V205.007H95.5112V206.337H94.5227V204.262H100.991V203.298H94.4983V202.517ZM94.5227 206.129H102.309V206.923H94.5227V206.129ZM114.685 196H115.698V207.045H114.685V196ZM115.198 200.381H117.236V201.248H115.198V200.381ZM108.51 197.635H109.267V199.283C109.267 199.763 109.238 200.263 109.181 200.784C109.124 201.297 109.027 201.801 108.888 202.297C108.75 202.794 108.563 203.253 108.327 203.676C108.099 204.099 107.806 204.449 107.448 204.726L106.801 203.981C107.135 203.729 107.412 203.42 107.631 203.054C107.859 202.68 108.034 202.277 108.156 201.846C108.286 201.415 108.376 200.979 108.425 200.54C108.482 200.092 108.51 199.673 108.51 199.283V197.635ZM108.73 197.635H109.474V199.283C109.474 199.641 109.494 200.035 109.535 200.467C109.576 200.898 109.653 201.337 109.767 201.785C109.881 202.232 110.044 202.655 110.255 203.054C110.467 203.444 110.747 203.782 111.097 204.067L110.524 204.824C110.149 204.531 109.844 204.16 109.608 203.713C109.372 203.265 109.189 202.785 109.059 202.273C108.929 201.752 108.84 201.231 108.791 200.711C108.75 200.19 108.73 199.714 108.73 199.283V197.635ZM111.585 197.635H112.318V199.283C112.318 199.739 112.293 200.231 112.244 200.76C112.204 201.28 112.118 201.797 111.988 202.31C111.858 202.822 111.675 203.298 111.439 203.737C111.203 204.177 110.898 204.539 110.524 204.824L109.962 204.067C110.304 203.79 110.581 203.461 110.792 203.078C111.012 202.688 111.179 202.273 111.293 201.834C111.406 201.386 111.484 200.943 111.524 200.503C111.565 200.064 111.585 199.657 111.585 199.283V197.635ZM111.793 197.635H112.55V199.283C112.55 199.69 112.574 200.117 112.623 200.564C112.68 201.012 112.769 201.451 112.891 201.882C113.021 202.305 113.196 202.7 113.416 203.066C113.644 203.424 113.925 203.729 114.258 203.981L113.611 204.726C113.261 204.449 112.969 204.108 112.733 203.701C112.497 203.286 112.31 202.83 112.171 202.334C112.033 201.838 111.935 201.329 111.878 200.808C111.821 200.288 111.793 199.779 111.793 199.283V197.635ZM107.155 197.123H110.292V197.953H107.155V197.123ZM110.768 197.123H113.807V197.953H110.768V197.123ZM123.703 199.747H126.766V200.577H123.703V199.747ZM121.03 196.952H121.86V198.929C121.86 199.539 121.783 200.141 121.628 200.735C121.482 201.329 121.27 201.882 120.994 202.395C120.717 202.908 120.392 203.363 120.017 203.762C119.651 204.16 119.249 204.478 118.809 204.714L118.175 203.896C118.581 203.701 118.956 203.428 119.297 203.078C119.647 202.729 119.952 202.33 120.213 201.882C120.473 201.427 120.672 200.951 120.811 200.454C120.957 199.95 121.03 199.442 121.03 198.929V196.952ZM121.238 196.952H122.056V198.929C122.056 199.425 122.125 199.918 122.263 200.406C122.409 200.894 122.613 201.354 122.873 201.785C123.134 202.208 123.435 202.586 123.776 202.92C124.126 203.253 124.5 203.514 124.899 203.701L124.289 204.518C123.85 204.291 123.443 203.986 123.069 203.603C122.694 203.221 122.369 202.781 122.092 202.285C121.824 201.789 121.612 201.256 121.458 200.686C121.311 200.117 121.238 199.531 121.238 198.929V196.952ZM126.266 196H127.267V207.057H126.266V196ZM139.924 196H140.937V207.057H139.924V196ZM137.556 200.015H140.217V200.845H137.556V200.015ZM134.652 197.574H135.469V199.234C135.469 199.828 135.388 200.414 135.225 200.991C135.071 201.561 134.851 202.098 134.566 202.602C134.29 203.107 133.96 203.554 133.578 203.945C133.203 204.335 132.801 204.645 132.369 204.872L131.759 204.067C132.158 203.872 132.532 203.603 132.882 203.261C133.232 202.92 133.537 202.533 133.797 202.102C134.066 201.663 134.273 201.199 134.42 200.711C134.574 200.214 134.652 199.722 134.652 199.234V197.574ZM134.871 197.574H135.677V199.234C135.677 199.69 135.75 200.153 135.896 200.625C136.043 201.089 136.246 201.528 136.507 201.943C136.775 202.358 137.084 202.733 137.434 203.066C137.784 203.392 138.158 203.648 138.557 203.835L137.959 204.64C137.52 204.421 137.113 204.124 136.739 203.75C136.364 203.375 136.035 202.948 135.75 202.468C135.473 201.98 135.258 201.459 135.103 200.906C134.949 200.353 134.871 199.795 134.871 199.234V197.574ZM132.174 197.135H138.166V197.965H132.174V197.135ZM147.563 202.139H148.563V203.872H147.563V202.139ZM143.084 201.553H153.054V202.371H143.084V201.553ZM144.194 203.628H151.822V207.008H150.809V204.445H144.194V203.628ZM147.563 195.951H148.563V197.489H147.563V195.951ZM147.514 197.611H148.405V197.794C148.405 198.25 148.291 198.66 148.063 199.027C147.835 199.385 147.514 199.694 147.099 199.954C146.692 200.214 146.22 200.43 145.683 200.601C145.154 200.764 144.589 200.878 143.987 200.943L143.669 200.174C144.206 200.117 144.707 200.023 145.171 199.893C145.634 199.763 146.041 199.596 146.391 199.393C146.749 199.181 147.026 198.941 147.221 198.673C147.416 198.404 147.514 198.111 147.514 197.794V197.611ZM147.733 197.611H148.612V197.794C148.612 198.111 148.71 198.404 148.905 198.673C149.108 198.941 149.385 199.181 149.735 199.393C150.093 199.596 150.5 199.763 150.955 199.893C151.419 200.023 151.919 200.117 152.456 200.174L152.139 200.943C151.545 200.878 150.98 200.764 150.443 200.601C149.906 200.43 149.434 200.214 149.027 199.954C148.62 199.694 148.303 199.385 148.075 199.027C147.847 198.66 147.733 198.25 147.733 197.794V197.611ZM144.109 197.086H152.041V197.892H144.109V197.086ZM161.792 196H162.792V207.045H161.792V196ZM162.56 200.54H164.599V201.394H162.56V200.54ZM154.249 197.77H160.754V198.599H154.249V197.77ZM157.557 199.503C158.077 199.503 158.537 199.612 158.936 199.832C159.343 200.052 159.66 200.353 159.888 200.735C160.124 201.109 160.242 201.545 160.242 202.041C160.242 202.537 160.124 202.977 159.888 203.359C159.66 203.741 159.343 204.042 158.936 204.262C158.537 204.474 158.077 204.579 157.557 204.579C157.036 204.579 156.572 204.474 156.166 204.262C155.767 204.042 155.45 203.741 155.214 203.359C154.978 202.977 154.86 202.537 154.86 202.041C154.86 201.545 154.978 201.109 155.214 200.735C155.45 200.353 155.767 200.052 156.166 199.832C156.572 199.612 157.036 199.503 157.557 199.503ZM157.557 200.345C157.223 200.345 156.926 200.418 156.666 200.564C156.406 200.711 156.198 200.91 156.043 201.162C155.897 201.415 155.824 201.707 155.824 202.041C155.824 202.375 155.897 202.672 156.043 202.932C156.198 203.184 156.406 203.383 156.666 203.53C156.926 203.668 157.223 203.737 157.557 203.737C157.882 203.737 158.175 203.668 158.435 203.53C158.696 203.383 158.899 203.184 159.046 202.932C159.2 202.672 159.278 202.375 159.278 202.041C159.278 201.707 159.2 201.415 159.046 201.162C158.899 200.91 158.696 200.711 158.435 200.564C158.175 200.418 157.882 200.345 157.557 200.345ZM157.032 196.134H158.045V198.136H157.032V196.134ZM166.88 199.32H174.385V200.137H166.88V199.32ZM165.525 201.614H175.532V202.444H165.525V201.614ZM166.88 196.403H167.88V199.734H166.88V196.403ZM166.807 205.946H174.446V206.776H166.807V205.946ZM166.807 203.554H167.819V206.166H166.807V203.554ZM187.274 196.012H188.287V203.469H187.274V196.012ZM184.907 199.112H187.482V199.954H184.907V199.112ZM183.796 196.879H184.858C184.858 197.822 184.658 198.677 184.26 199.442C183.861 200.198 183.283 200.857 182.527 201.419C181.778 201.98 180.879 202.432 179.83 202.773L179.39 201.968C180.326 201.675 181.119 201.301 181.77 200.845C182.429 200.389 182.93 199.861 183.271 199.258C183.621 198.656 183.796 197.993 183.796 197.269V196.879ZM179.927 196.879H184.516V197.709H179.927V196.879ZM184.223 202.529H185.09V203.03C185.09 203.55 184.976 204.034 184.748 204.482C184.528 204.921 184.223 205.312 183.833 205.653C183.45 205.987 183.011 206.268 182.515 206.496C182.018 206.731 181.494 206.902 180.94 207.008L180.538 206.203C181.026 206.121 181.489 205.987 181.929 205.8C182.376 205.605 182.771 205.369 183.113 205.092C183.454 204.815 183.723 204.502 183.918 204.152C184.121 203.802 184.223 203.428 184.223 203.03V202.529ZM184.357 202.529H185.224V203.03C185.224 203.42 185.322 203.79 185.517 204.14C185.712 204.482 185.981 204.791 186.322 205.068C186.664 205.344 187.055 205.576 187.494 205.763C187.941 205.95 188.405 206.089 188.885 206.178L188.47 206.984C187.917 206.878 187.392 206.711 186.896 206.483C186.408 206.255 185.972 205.975 185.59 205.641C185.208 205.3 184.907 204.909 184.687 204.47C184.467 204.03 184.357 203.55 184.357 203.03V202.529Z" fill="#0D141C"/>
<rect x="0.43586" y="235.938" width="298.128" height="46.0233" rx="6.5379" stroke="#C7C7C7" stroke-width="0.87172"/>
<rect x="14.8192" y="251.104" width="15.691" height="15.691" rx="7.84548" stroke="#C7C7C7" stroke-width="1.74344"/>
<path d="M50.9068 255.822H54.2507V256.652H50.9068V255.822ZM50.9068 259.312H54.2507V260.142H50.9068V259.312ZM48.8809 254.211C49.4179 254.211 49.8939 254.369 50.3088 254.687C50.7237 254.996 51.0451 255.439 51.2729 256.017C51.5089 256.595 51.6268 257.274 51.6268 258.055C51.6268 258.836 51.5089 259.515 51.2729 260.093C51.0451 260.671 50.7237 261.118 50.3088 261.436C49.8939 261.753 49.4179 261.912 48.8809 261.912C48.3521 261.912 47.8761 261.753 47.453 261.436C47.0381 261.118 46.7127 260.671 46.4767 260.093C46.2489 259.515 46.135 258.836 46.135 258.055C46.135 257.274 46.2489 256.595 46.4767 256.017C46.7127 255.439 47.0381 254.996 47.453 254.687C47.8761 254.369 48.3521 254.211 48.8809 254.211ZM48.8809 255.114C48.5311 255.114 48.2219 255.236 47.9534 255.48C47.6849 255.716 47.4734 256.058 47.3188 256.505C47.1723 256.944 47.0991 257.461 47.0991 258.055C47.0991 258.649 47.1723 259.17 47.3188 259.617C47.4734 260.056 47.6849 260.398 47.9534 260.642C48.2219 260.886 48.5311 261.008 48.8809 261.008C49.2389 261.008 49.5521 260.886 49.8206 260.642C50.0891 260.398 50.2966 260.056 50.443 259.617C50.5976 259.17 50.6749 258.649 50.6749 258.055C50.6749 257.461 50.5976 256.944 50.443 256.505C50.2966 256.058 50.0891 255.716 49.8206 255.48C49.5521 255.236 49.2389 255.114 48.8809 255.114ZM54.0188 253.356H55.0196V264.413H54.0188V253.356ZM65.2334 253.356H66.2342V264.413H65.2334V253.356ZM63.1343 257.591H65.4775V258.433H63.1343V257.591ZM57.5815 260.911H58.4236C59.0744 260.911 59.6724 260.903 60.2176 260.886C60.7627 260.87 61.2915 260.838 61.8041 260.789C62.3167 260.74 62.8414 260.663 63.3784 260.557L63.4638 261.399C62.9106 261.497 62.3736 261.574 61.8529 261.631C61.3403 261.68 60.8034 261.716 60.242 261.741C59.6887 261.757 59.0826 261.765 58.4236 261.765H57.5815V260.911ZM57.5449 254.382H62.4753V258.25H58.5822V261.179H57.5815V257.42H61.4868V255.211H57.5449V254.382ZM70.8243 259.19H80.8317V260.008H70.8243V259.19ZM75.3887 259.605H76.4016V262.143H75.3887V259.605ZM72.0936 263.327H79.7211V264.157H72.0936V263.327ZM72.0936 261.155H73.0943V263.632H72.0936V261.155ZM72.1546 253.71H73.1553V255.114H78.5007V253.71H79.5014V258.128H72.1546V253.71ZM73.1553 255.895V257.311H78.5007V255.895H73.1553ZM84.9923 254.211C85.5374 254.211 86.0175 254.369 86.4324 254.687C86.8473 254.996 87.1728 255.439 87.4087 256.017C87.6447 256.595 87.7626 257.274 87.7626 258.055C87.7626 258.836 87.6447 259.515 87.4087 260.093C87.1728 260.671 86.8473 261.118 86.4324 261.436C86.0175 261.753 85.5374 261.912 84.9923 261.912C84.4553 261.912 83.9753 261.753 83.5522 261.436C83.1373 261.118 82.8119 260.671 82.5759 260.093C82.34 259.515 82.222 258.836 82.222 258.055C82.222 257.274 82.34 256.595 82.5759 256.017C82.8119 255.439 83.1373 254.996 83.5522 254.687C83.9753 254.369 84.4553 254.211 84.9923 254.211ZM84.9923 255.114C84.6425 255.114 84.3292 255.236 84.0526 255.48C83.7841 255.716 83.5726 256.058 83.418 256.505C83.2634 256.944 83.1861 257.461 83.1861 258.055C83.1861 258.649 83.2634 259.17 83.418 259.617C83.5726 260.056 83.7841 260.398 84.0526 260.642C84.3292 260.886 84.6465 261.008 85.0045 261.008C85.3544 261.008 85.6635 260.886 85.932 260.642C86.2087 260.398 86.4202 260.056 86.5666 259.617C86.7212 259.17 86.7985 258.649 86.7985 258.055C86.7985 257.461 86.7212 256.944 86.5666 256.505C86.4202 256.058 86.2087 255.716 85.932 255.48C85.6635 255.236 85.3503 255.114 84.9923 255.114ZM90.2645 256.127H92.3026V256.981H90.2645V256.127ZM90.2645 259.422H92.3026V260.264H90.2645V259.422ZM89.5322 253.356H90.5452V264.401H89.5322V253.356ZM96.8659 254.162C97.4436 254.162 97.9521 254.272 98.3914 254.491C98.8389 254.703 99.1888 255.004 99.441 255.395C99.6932 255.785 99.8193 256.241 99.8193 256.761C99.8193 257.274 99.6932 257.73 99.441 258.128C99.1888 258.519 98.8389 258.824 98.3914 259.044C97.9521 259.255 97.4436 259.361 96.8659 259.361C96.2964 259.361 95.7879 259.255 95.3404 259.044C94.8929 258.824 94.539 258.519 94.2787 258.128C94.0265 257.73 93.9003 257.274 93.9003 256.761C93.9003 256.241 94.0265 255.785 94.2787 255.395C94.539 255.004 94.8929 254.703 95.3404 254.491C95.7879 254.272 96.2964 254.162 96.8659 254.162ZM96.8659 255.041C96.4917 255.041 96.154 255.114 95.853 255.26C95.5601 255.399 95.3282 255.598 95.1574 255.858C94.9865 256.119 94.9011 256.42 94.9011 256.761C94.9011 257.103 94.9865 257.404 95.1574 257.664C95.3282 257.925 95.5601 258.128 95.853 258.275C96.154 258.413 96.4917 258.482 96.8659 258.482C97.2483 258.482 97.586 258.413 97.8789 258.275C98.1718 258.128 98.4036 257.925 98.5745 257.664C98.7454 257.404 98.8308 257.103 98.8308 256.761C98.8308 256.42 98.7454 256.119 98.5745 255.858C98.4036 255.598 98.1718 255.399 97.8789 255.26C97.586 255.114 97.2483 255.041 96.8659 255.041ZM101.272 253.356H102.285V264.413H101.272V253.356ZM93.4854 261.997L93.3512 261.143C94.0265 261.143 94.7668 261.139 95.5723 261.13C96.3778 261.114 97.2076 261.082 98.0619 261.033C98.9244 260.976 99.7542 260.886 100.552 260.764L100.637 261.509C99.8071 261.663 98.965 261.777 98.1108 261.85C97.2646 261.916 96.4469 261.956 95.6577 261.973C94.8685 261.989 94.1444 261.997 93.4854 261.997ZM111.378 254.455H112.257V254.919C112.257 255.309 112.179 255.679 112.025 256.029C111.87 256.379 111.655 256.704 111.378 257.005C111.101 257.298 110.78 257.559 110.414 257.787C110.048 258.014 109.653 258.21 109.23 258.372C108.815 258.527 108.384 258.641 107.936 258.714L107.546 257.909C107.936 257.86 108.315 257.77 108.681 257.64C109.055 257.502 109.405 257.339 109.73 257.152C110.056 256.965 110.341 256.753 110.585 256.517C110.837 256.281 111.032 256.029 111.171 255.761C111.309 255.484 111.378 255.203 111.378 254.919V254.455ZM111.634 254.455H112.513V254.919C112.513 255.203 112.582 255.484 112.72 255.761C112.859 256.029 113.05 256.281 113.294 256.517C113.546 256.753 113.835 256.965 114.161 257.152C114.486 257.339 114.832 257.502 115.198 257.64C115.572 257.77 115.955 257.86 116.345 257.909L115.967 258.714C115.519 258.641 115.084 258.527 114.661 258.372C114.238 258.21 113.843 258.014 113.477 257.787C113.111 257.559 112.79 257.298 112.513 257.005C112.236 256.704 112.021 256.379 111.866 256.029C111.712 255.679 111.634 255.309 111.634 254.919V254.455ZM111.427 260.191H112.428V264.389H111.427V260.191ZM106.96 259.642H116.931V260.471H106.96V259.642ZM107.9 254.04H115.979V254.858H107.9V254.04ZM121.055 253.881H121.897V254.955C121.897 255.655 121.767 256.31 121.506 256.92C121.254 257.53 120.892 258.063 120.42 258.519C119.957 258.966 119.415 259.308 118.797 259.544L118.285 258.738C118.7 258.584 119.074 258.38 119.407 258.128C119.749 257.868 120.042 257.571 120.286 257.237C120.538 256.904 120.729 256.542 120.86 256.151C120.99 255.761 121.055 255.362 121.055 254.955V253.881ZM121.238 253.881H122.08V254.955C122.08 255.354 122.145 255.736 122.275 256.102C122.414 256.468 122.605 256.81 122.849 257.128C123.093 257.445 123.382 257.726 123.715 257.97C124.057 258.214 124.431 258.405 124.838 258.543L124.338 259.349C123.728 259.121 123.187 258.795 122.715 258.372C122.251 257.941 121.889 257.433 121.628 256.847C121.368 256.261 121.238 255.63 121.238 254.955V253.881ZM119.859 260.557H127.23V264.401H126.217V261.387H119.859V260.557ZM126.217 253.356H127.23V259.995H126.217V253.356ZM133.893 257.652H135.967V258.482H133.893V257.652ZM137.822 253.356H138.799V264.401H137.822V253.356ZM135.626 253.588H136.59V263.84H135.626V253.588ZM131.891 254.284C132.371 254.284 132.786 254.439 133.136 254.748C133.494 255.057 133.771 255.5 133.966 256.078C134.161 256.656 134.259 257.335 134.259 258.116C134.259 258.905 134.161 259.589 133.966 260.166C133.771 260.744 133.494 261.191 133.136 261.509C132.786 261.818 132.371 261.973 131.891 261.973C131.427 261.973 131.017 261.818 130.659 261.509C130.309 261.191 130.036 260.744 129.841 260.166C129.646 259.589 129.548 258.905 129.548 258.116C129.548 257.335 129.646 256.656 129.841 256.078C130.036 255.5 130.309 255.057 130.659 254.748C131.017 254.439 131.427 254.284 131.891 254.284ZM131.891 255.224C131.606 255.224 131.358 255.342 131.147 255.578C130.935 255.814 130.772 256.147 130.659 256.578C130.545 257.01 130.488 257.522 130.488 258.116C130.488 258.71 130.545 259.227 130.659 259.666C130.772 260.097 130.935 260.431 131.147 260.667C131.358 260.903 131.606 261.021 131.891 261.021C132.184 261.021 132.436 260.903 132.648 260.667C132.868 260.431 133.034 260.097 133.148 259.666C133.262 259.227 133.319 258.71 133.319 258.116C133.319 257.522 133.262 257.01 133.148 256.578C133.034 256.147 132.868 255.814 132.648 255.578C132.436 255.342 132.184 255.224 131.891 255.224ZM143.072 260.032H153.079V260.874H143.072V260.032ZM147.563 260.288H148.563V264.401H147.563V260.288ZM144.414 258.092H151.956V258.909H144.414V258.092ZM144.414 253.869H151.834V254.687H145.403V258.324H144.414V253.869ZM145.11 255.956H151.578V256.761H145.11V255.956ZM157.032 254.943H157.85V256.725C157.85 257.302 157.768 257.876 157.606 258.446C157.443 259.007 157.215 259.54 156.922 260.044C156.637 260.541 156.308 260.984 155.934 261.375C155.559 261.757 155.157 262.058 154.725 262.278L154.127 261.472C154.526 261.277 154.896 261.012 155.238 260.679C155.588 260.337 155.897 259.951 156.166 259.52C156.434 259.08 156.646 258.625 156.8 258.153C156.955 257.673 157.032 257.197 157.032 256.725V254.943ZM157.227 254.943H158.033V256.725C158.033 257.164 158.102 257.608 158.24 258.055C158.387 258.502 158.59 258.93 158.85 259.336C159.111 259.743 159.412 260.109 159.754 260.435C160.103 260.752 160.474 261.008 160.864 261.204L160.291 262.009C159.859 261.789 159.457 261.497 159.082 261.13C158.708 260.756 158.383 260.333 158.106 259.861C157.829 259.389 157.614 258.885 157.459 258.348C157.305 257.811 157.227 257.27 157.227 256.725V254.943ZM154.518 254.491H160.474V255.334H154.518V254.491ZM161.779 253.356H162.792V264.401H161.779V253.356ZM162.561 257.811H164.599V258.665H162.561V257.811ZM173.018 253.356H174.019V264.401H173.018V253.356ZM173.787 257.896H175.825V258.751H173.787V257.896ZM165.476 255.126H171.981V255.956H165.476V255.126ZM168.784 256.859C169.304 256.859 169.764 256.969 170.163 257.189C170.57 257.408 170.887 257.709 171.115 258.092C171.351 258.466 171.469 258.901 171.469 259.397C171.469 259.894 171.351 260.333 171.115 260.716C170.887 261.098 170.57 261.399 170.163 261.619C169.764 261.83 169.304 261.936 168.784 261.936C168.263 261.936 167.799 261.83 167.392 261.619C166.994 261.399 166.676 261.098 166.44 260.716C166.205 260.333 166.087 259.894 166.087 259.397C166.087 258.901 166.205 258.466 166.44 258.092C166.676 257.709 166.994 257.408 167.392 257.189C167.799 256.969 168.263 256.859 168.784 256.859ZM168.784 257.701C168.45 257.701 168.153 257.774 167.893 257.921C167.632 258.067 167.425 258.267 167.27 258.519C167.124 258.771 167.051 259.064 167.051 259.397C167.051 259.731 167.124 260.028 167.27 260.288C167.425 260.541 167.632 260.74 167.893 260.886C168.153 261.025 168.45 261.094 168.784 261.094C169.109 261.094 169.402 261.025 169.662 260.886C169.923 260.74 170.126 260.541 170.273 260.288C170.427 260.028 170.504 259.731 170.504 259.397C170.504 259.064 170.427 258.771 170.273 258.519C170.126 258.267 169.923 258.067 169.662 257.921C169.402 257.774 169.109 257.701 168.784 257.701ZM168.259 253.491H169.272V255.492H168.259V253.491ZM178.107 256.676H185.612V257.494H178.107V256.676ZM176.752 258.97H186.759V259.8H176.752V258.97ZM178.107 253.759H179.107V257.091H178.107V253.759ZM178.033 263.303H185.673V264.133H178.033V263.303ZM178.033 260.911H179.046V263.522H178.033V260.911ZM198.501 253.369H199.514V260.825H198.501V253.369ZM196.133 256.468H198.709V257.311H196.133V256.468ZM195.023 254.235H196.085C196.085 255.179 195.885 256.033 195.487 256.798C195.088 257.555 194.51 258.214 193.754 258.775C193.005 259.336 192.106 259.788 191.057 260.13L190.617 259.324C191.553 259.031 192.346 258.657 192.997 258.201C193.656 257.746 194.156 257.217 194.498 256.615C194.848 256.013 195.023 255.35 195.023 254.626V254.235ZM191.154 254.235H195.743V255.065H191.154V254.235ZM195.45 259.886H196.317V260.386C196.317 260.907 196.203 261.391 195.975 261.838C195.755 262.278 195.45 262.668 195.059 263.01C194.677 263.343 194.238 263.624 193.741 263.852C193.245 264.088 192.72 264.259 192.167 264.365L191.764 263.559C192.253 263.478 192.716 263.343 193.156 263.156C193.603 262.961 193.998 262.725 194.339 262.448C194.681 262.172 194.95 261.859 195.145 261.509C195.348 261.159 195.45 260.785 195.45 260.386V259.886ZM195.584 259.886H196.451V260.386C196.451 260.777 196.548 261.147 196.744 261.497C196.939 261.838 197.207 262.147 197.549 262.424C197.891 262.701 198.281 262.933 198.721 263.12C199.168 263.307 199.632 263.445 200.112 263.535L199.697 264.34C199.144 264.234 198.619 264.068 198.123 263.84C197.635 263.612 197.199 263.331 196.817 262.998C196.434 262.656 196.133 262.265 195.914 261.826C195.694 261.387 195.584 260.907 195.584 260.386V259.886Z" fill="#0D141C"/>
<rect width="376" height="223" transform="translate(-39 236)" fill="url(#paint0_linear_488_5192)"/>
</g>
<defs>
<linearGradient id="paint0_linear_488_5192" x1="188" y1="0" x2="188" y2="223" gradientUnits="userSpaceOnUse">
<stop stop-color="#F7FAFC" stop-opacity="0"/>
<stop offset="0.163462" stop-color="#F7FAFC"/>
<stop offset="1" stop-color="#F7FAFC"/>
</linearGradient>
<clipPath id="clip0_488_5192">
<rect width="299" height="288.966" fill="white"/>
</clipPath>
<clipPath id="clip1_488_5192">
<rect x="13.9475" y="78.165" width="17.4344" height="17.4344" rx="8.7172" fill="white"/>
</clipPath>
</defs>
</svg>
